<svg width="63" height="83" viewBox="0 0 63 83" fill="none" xmlns="http://www.w3.org/2000/svg">
<path d="M29.3103 54.2684C29.6086 54.1241 29.9665 54.1241 30.2647 54.2684L58.8769 68.0158C58.9962 68.0699 59.0558 68.1962 58.9961 68.3045C58.9762 68.3586 58.9366 68.3946 58.8769 68.4127L31.0003 81.8173C30.2448 82.1781 29.3501 82.1781 28.5945 81.8173L0.718022 68.4127C0.598695 68.3586 0.539031 68.2323 0.598695 68.106C0.618556 68.0699 0.658358 68.0158 0.718022 67.9977L29.3103 54.2684Z" stroke="#E06868" stroke-opacity="0.25" stroke-miterlimit="10"/>
<ellipse cx="31.2929" cy="14.6244" rx="31.2929" ry="14.6244" transform="matrix(-1 0 0 1 62.5859 52.8867)" fill="url(#paint0_radial_347_352)"/>
<path d="M31.0254 26.8029L0.441249 13.6465L0.472678 63.787L29.8449 77.1291L31.0254 26.8029Z" fill="url(#paint1_linear_347_352)"/>
<path d="M13.1328 65.1539L13.1289 66.2449L3.4308 61.8683L3.43475 60.7773L13.1328 65.1539Z" fill="#3D4246"/>
<path d="M13.1582 57.6109L13.1542 58.702L3.45618 54.3254L3.46014 53.2344L13.1582 57.6109Z" fill="#3D4246"/>
<path d="M13.1523 59.4957L13.1484 60.5867L3.45033 56.2101L3.4543 55.1191L13.1523 59.4957Z" fill="#3D4246"/>
<path d="M13.1445 61.3804L13.1406 62.4715L3.44252 58.0949L3.44648 57.0039L13.1445 61.3804Z" fill="#3D4246"/>
<path d="M13.1367 63.2672L13.1328 64.3582L3.43471 59.9816L3.43866 58.8906L13.1367 63.2672Z" fill="#3D4246"/>
<path d="M13.1328 31.9332L13.1289 33.0242L3.4308 28.6476L3.43475 27.5566L13.1328 31.9332Z" fill="#3D4246"/>
<path d="M13.1582 24.3902L13.1542 25.4812L3.45618 21.1047L3.46014 20.0137L13.1582 24.3902Z" fill="#3D4246"/>
<path d="M13.1523 26.277L13.1484 27.368L3.45033 22.9914L3.4543 21.9004L13.1523 26.277Z" fill="#3D4246"/>
<path d="M13.1445 28.1617L13.1406 29.2527L3.44252 24.8762L3.44648 23.7852L13.1445 28.1617Z" fill="#3D4246"/>
<path d="M13.1367 30.0484L13.1328 31.1394L3.43471 26.7629L3.43866 25.6719L13.1367 30.0484Z" fill="#3D4246"/>
<path d="M30.3135 27.126L30.3438 76.3545L59.7949 63.0625L59.7646 14.0156L30.3135 27.126Z" fill="#31373F" stroke="#252728"/>
<path d="M32.2838 28.6377L31.0261 28.0664L31.0529 33.4006L32.3105 33.9719L32.2838 28.6377Z" fill="#3D4246"/>
<path d="M59.0605 16.5557L57.8029 15.9844L31.0286 28.0671L32.2863 28.6384L59.0605 16.5557Z" fill="#252728"/>
<path d="M32.2849 28.6374L32.3116 33.9716L59.0859 21.8889L59.0591 16.5547L32.2849 28.6374Z" fill="url(#paint2_linear_347_352)"/>
<path d="M32.2849 28.6374L32.3116 33.9716L59.0859 21.8889L59.0591 16.5547L32.2849 28.6374Z" fill="url(#paint3_linear_347_352)"/>
<path d="M55.4512 19.6294L55.455 20.3582L57.3301 19.512L57.3263 18.7832L55.4512 19.6294Z" fill="#3F5D7D"/>
<path d="M52.733 20.8579L52.7367 21.5867L54.6074 20.7425L54.6036 20.0137L52.733 20.8579Z" fill="#3F5D7D"/>
<path d="M34.7403 28.9771L34.744 29.7059L36.6191 28.8597L36.6154 28.1309L34.7403 28.9771Z" fill="#3F5D7D"/>
<path d="M34.8549 31.3763C34.7167 31.3135 34.7171 31.1114 34.8558 30.9248C34.9944 30.7383 35.2189 30.638 35.3571 30.7008C35.4954 30.7636 35.495 30.9657 35.3563 31.1522C35.2176 31.3387 34.9932 31.439 34.8549 31.3763Z" fill="#3E515A"/>
<path d="M36.3119 30.1779C36.1138 30.2673 35.9579 30.4815 35.9585 30.6563C35.9591 30.8312 36.1161 30.9042 36.3142 30.8148C36.5088 30.7269 36.6647 30.5127 36.6641 30.3379C36.6634 30.1631 36.5065 30.0901 36.3119 30.1779Z" fill="#3E515A"/>
<path d="M37.2651 30.2903C37.1269 30.2275 37.1272 30.0254 37.2659 29.8389C37.4046 29.6524 37.6291 29.552 37.7673 29.6148C37.9055 29.6776 37.9052 29.8797 37.7665 30.0663C37.6278 30.2528 37.4033 30.3531 37.2651 30.2903Z" fill="#3E515A"/>
<path d="M38.4702 29.7454C38.3319 29.6826 38.3323 29.4805 38.471 29.294C38.6097 29.1074 38.8342 29.0071 38.9724 29.0699C39.1106 29.1327 39.1102 29.3348 38.9715 29.5213C38.8329 29.7079 38.6084 29.8082 38.4702 29.7454Z" fill="#3E515A"/>
<path d="M58.1438 17.6487L58.3051 17.5762L58.3251 21.5005L58.3262 21.5483L33.2212 32.8775L33.0599 32.95L33.0398 29.0257L33.0388 28.9779L58.1438 17.6487ZM33.2749 32.6599L58.109 21.4527L58.09 17.8663L33.256 29.0735L33.2749 32.6599Z" fill="#3F5D7D"/>
<path d="M32.2838 36.6572L31.0261 36.0859L31.0529 41.4201L32.3105 41.9914L32.2838 36.6572Z" fill="#3D4246"/>
<path d="M59.0605 24.5752L57.8029 24.0039L31.0286 36.0866L32.2863 36.6579L59.0605 24.5752Z" fill="#252728"/>
<path d="M32.2849 36.6589L32.3116 41.9931L59.0859 29.9104L59.0591 24.5762L32.2849 36.6589Z" fill="#252728"/>
<path d="M32.2849 36.6589L32.3116 41.9931L59.0859 29.9104L59.0591 24.5762L32.2849 36.6589Z" fill="url(#paint4_linear_347_352)"/>
<path d="M55.4531 27.647L55.4569 28.3758L57.332 27.5296L57.3282 26.8008L55.4531 27.647Z" fill="#3F5D7D"/>
<path d="M52.7349 28.8755L52.7387 29.6043L54.6094 28.7601L54.6056 28.0312L52.7349 28.8755Z" fill="#3F5D7D"/>
<path d="M34.7422 36.9946L34.746 37.7235L36.6211 36.8773L36.6173 36.1484L34.7422 36.9946Z" fill="#3F5D7D"/>
<path d="M34.8569 39.3977C34.7187 39.335 34.719 39.1328 34.8577 38.9463C34.9964 38.7598 35.2209 38.6595 35.3591 38.7223C35.4973 38.785 35.497 38.9872 35.3583 39.1737C35.2196 39.3602 34.9951 39.4605 34.8569 39.3977Z" fill="#3E515A"/>
<path d="M36.3138 38.1955C36.1157 38.2849 35.9598 38.4991 35.9604 38.6739C35.9611 38.8487 36.118 38.9217 36.3161 38.8323C36.5108 38.7445 36.6666 38.5303 36.666 38.3555C36.6654 38.1807 36.5085 38.1076 36.3138 38.1955Z" fill="#3E515A"/>
<path d="M37.2651 38.3079C37.1269 38.2451 37.1272 38.043 37.2659 37.8565C37.4046 37.6699 37.6291 37.5696 37.7673 37.6324C37.9055 37.6952 37.9052 37.8973 37.7665 38.0838C37.6278 38.2704 37.4033 38.3707 37.2651 38.3079Z" fill="#3E515A"/>
<path d="M38.4721 37.7649C38.3339 37.7021 38.3343 37.5 38.473 37.3135C38.6116 37.127 38.8361 37.0267 38.9743 37.0894C39.1126 37.1522 39.1122 37.3543 38.9735 37.5409C38.8348 37.7274 38.6103 37.8277 38.4721 37.7649Z" fill="#3E515A"/>
<path d="M58.1457 25.6682L58.307 25.5957L58.3171 27.5578L58.3271 29.52L58.3281 29.5678L33.2231 40.897L33.0618 40.9695L33.0418 37.0453L33.0407 36.9975L58.1457 25.6682ZM33.2769 40.6795L58.1109 29.4722L58.0919 25.8858L33.2579 37.093L33.2769 40.6795Z" fill="#3F5D7D"/>
<path d="M32.2838 44.6787L31.0261 44.1074L31.0529 49.4416L32.3105 50.0129L32.2838 44.6787Z" fill="#3D4246"/>
<path d="M59.0605 32.5967L57.8029 32.0254L31.0286 44.1081L32.2863 44.6794L59.0605 32.5967Z" fill="#252728"/>
<path d="M32.2849 44.6784L32.3116 50.0126L59.0859 37.9299L59.0591 32.5957L32.2849 44.6784Z" fill="#252728"/>
<path d="M32.2849 44.6784L32.3116 50.0126L59.0859 37.9299L59.0591 32.5957L32.2849 44.6784Z" fill="url(#paint5_linear_347_352)"/>
<path d="M55.4531 35.6685L55.4569 36.3973L57.332 35.5511L57.3282 34.8223L55.4531 35.6685Z" fill="#3F5D7D"/>
<path d="M52.7349 36.8969L52.7387 37.6257L54.6094 36.7816L54.6056 36.0527L52.7349 36.8969Z" fill="#3F5D7D"/>
<path d="M34.7422 45.0142L34.746 45.743L36.6211 44.8968L36.6173 44.168L34.7422 45.0142Z" fill="#3F5D7D"/>
<path d="M34.8569 47.4173C34.7187 47.3545 34.719 47.1524 34.8577 46.9658C34.9964 46.7793 35.2209 46.679 35.3591 46.7418C35.4973 46.8046 35.4969 47.0067 35.3583 47.1932C35.2196 47.3798 34.9951 47.4801 34.8569 47.4173Z" fill="#3E515A"/>
<path d="M36.3138 46.217C36.1157 46.3064 35.9598 46.5206 35.9604 46.6954C35.9611 46.8702 36.118 46.9432 36.3161 46.8538C36.5108 46.766 36.6666 46.5518 36.666 46.377C36.6654 46.2021 36.5085 46.1291 36.3138 46.217Z" fill="#3E515A"/>
<path d="M37.2651 46.3294C37.1269 46.2666 37.1272 46.0645 37.2659 45.878C37.4046 45.6914 37.6291 45.5911 37.7673 45.6539C37.9055 45.7167 37.9052 45.9188 37.7665 46.1053C37.6278 46.2919 37.4033 46.3922 37.2651 46.3294Z" fill="#3E515A"/>
<path d="M38.4721 45.7864C38.3339 45.7236 38.3343 45.5215 38.473 45.335C38.6116 45.1485 38.8361 45.0481 38.9743 45.1109C39.1126 45.1737 39.1122 45.3758 38.9735 45.5624C38.8348 45.7489 38.6103 45.8492 38.4721 45.7864Z" fill="#3E515A"/>
<path d="M58.1457 33.6897L58.307 33.6172L58.3271 37.5415L58.3281 37.5893L33.2231 48.9185L33.0618 48.991L33.0418 45.0667L33.0407 45.0189L58.1457 33.6897ZM33.2769 48.701L58.1109 37.4937L58.0919 33.9073L33.2579 45.1145L33.2769 48.701Z" fill="#3F5D7D"/>
<path d="M32.2838 52.7002L31.0261 52.1289L31.0529 57.4631L32.3105 58.0344L32.2838 52.7002Z" fill="#3D4246"/>
<path d="M59.0605 40.6162L57.8029 40.0449L31.0286 52.1277L32.2863 52.6989L59.0605 40.6162Z" fill="#252728"/>
<path d="M32.2849 52.698L32.3116 58.0321L59.0859 45.9494L59.0591 40.6152L32.2849 52.698Z" fill="#252728"/>
<path d="M32.2849 52.698L32.3116 58.0321L59.0859 45.9494L59.0591 40.6152L32.2849 52.698Z" fill="url(#paint6_linear_347_352)"/>
<path d="M55.4531 43.69L55.4569 44.4188L57.332 43.5726L57.3282 42.8438L55.4531 43.69Z" fill="#3F5D7D"/>
<path d="M52.7349 44.9184L52.7387 45.6472L54.6094 44.803L54.6056 44.0742L52.7349 44.9184Z" fill="#3F5D7D"/>
<path d="M34.7422 53.0356L34.746 53.7645L36.6211 52.9183L36.6173 52.1895L34.7422 53.0356Z" fill="#3F5D7D"/>
<path d="M34.8569 55.4388C34.7187 55.376 34.719 55.1739 34.8577 54.9873C34.9964 54.8008 35.2209 54.7005 35.3591 54.7633C35.4973 54.8261 35.497 55.0282 35.3583 55.2147C35.2196 55.4012 34.9951 55.5015 34.8569 55.4388Z" fill="#3E515A"/>
<path d="M36.3138 54.2384C36.1157 54.3279 35.9598 54.542 35.9604 54.7169C35.9611 54.8917 36.118 54.9647 36.3161 54.8753C36.5108 54.7875 36.6666 54.5733 36.666 54.3985C36.6654 54.2236 36.5085 54.1506 36.3138 54.2384Z" fill="#3E515A"/>
<path d="M37.267 54.3509C37.1288 54.2881 37.1292 54.086 37.2679 53.8994C37.4066 53.7129 37.631 53.6126 37.7693 53.6754C37.9075 53.7382 37.9071 53.9403 37.7684 54.1268C37.6297 54.3133 37.4053 54.4137 37.267 54.3509Z" fill="#3E515A"/>
<path d="M38.4721 53.8079C38.3339 53.7451 38.3343 53.543 38.473 53.3565C38.6116 53.1699 38.8361 53.0696 38.9743 53.1324C39.1126 53.1952 39.1122 53.3973 38.9735 53.5838C38.8348 53.7704 38.6103 53.8707 38.4721 53.8079Z" fill="#3E515A"/>
<path d="M58.1457 41.7092L58.307 41.6367L58.3271 45.561L58.3281 45.6088L33.2231 56.938L33.0618 57.0106L33.0418 53.0863L33.0407 53.0385L58.1457 41.7092ZM33.2769 56.7205L58.1109 45.5132L58.0919 41.9268L33.2579 53.1341L33.2769 56.7205Z" fill="#3F5D7D"/>
<path d="M32.2838 60.7178L31.0261 60.1465L31.0529 65.4807L32.3105 66.052L32.2838 60.7178Z" fill="#3D4246"/>
<path d="M59.0605 48.6338L57.8029 48.0625L31.0286 60.1452L32.2863 60.7165L59.0605 48.6338Z" fill="#252728"/>
<path d="M32.2849 60.7175L32.3116 66.0517L59.0859 53.9689L59.0591 48.6348L32.2849 60.7175Z" fill="#252728"/>
<path d="M32.2849 60.7175L32.3116 66.0517L59.0859 53.9689L59.0591 48.6348L32.2849 60.7175Z" fill="url(#paint7_linear_347_352)"/>
<path d="M55.4531 51.7095L55.4569 52.4383L57.332 51.5921L57.3282 50.8633L55.4531 51.7095Z" fill="#3F5D7D"/>
<path d="M52.733 52.9379L52.7367 53.6668L54.6074 52.8226L54.6036 52.0938L52.733 52.9379Z" fill="#3F5D7D"/>
<path d="M34.7422 61.0552L34.746 61.784L36.6211 60.9378L36.6173 60.209L34.7422 61.0552Z" fill="#3F5D7D"/>
<path d="M34.8569 63.4563C34.7187 63.3936 34.719 63.1914 34.8577 63.0049C34.9964 62.8184 35.2209 62.7181 35.3591 62.7808C35.4973 62.8436 35.497 63.0457 35.3583 63.2323C35.2196 63.4188 34.9951 63.5191 34.8569 63.4563Z" fill="#3E515A"/>
<path d="M36.3138 62.258C36.1157 62.3474 35.9598 62.5616 35.9604 62.7364C35.9611 62.9112 36.118 62.9842 36.3161 62.8948C36.5108 62.807 36.6666 62.5928 36.666 62.418C36.6654 62.2432 36.5085 62.1701 36.3138 62.258Z" fill="#3E515A"/>
<path d="M37.2651 62.3704C37.1269 62.3076 37.1272 62.1055 37.2659 61.919C37.4046 61.7324 37.6291 61.6321 37.7673 61.6949C37.9055 61.7577 37.9052 61.9598 37.7665 62.1463C37.6278 62.3329 37.4033 62.4332 37.2651 62.3704Z" fill="#3E515A"/>
<path d="M38.4741 61.8255C38.3358 61.7627 38.3362 61.5606 38.4749 61.3741C38.6136 61.1875 38.8381 61.0872 38.9763 61.15C39.1145 61.2128 39.1141 61.4149 38.9755 61.6014C38.8368 61.788 38.6123 61.8883 38.4741 61.8255Z" fill="#3E515A"/>
<path d="M58.1457 49.7288L58.307 49.6562L58.3271 53.5805L58.3281 53.6283L33.2231 64.9576L33.0618 65.0301L33.0418 61.1058L33.0407 61.058L58.1457 49.7288ZM33.2769 64.74L58.1109 53.5327L58.0919 49.9463L33.2579 61.1536L33.2769 64.74Z" fill="#3F5D7D"/>
<path d="M33.8836 66.8662V70.1804L33.9033 73.2492L35.6504 72.4513V69.3979L35.6307 66.0684L33.8836 66.8662Z" fill="#3D4246"/>
<path d="M53.8104 57.8574L52.0633 58.6553L52.083 61.9849V65.0382L53.8496 64.2404L53.83 61.187L53.8104 57.8574Z" fill="#3D4246"/>
<path d="M49.3531 59.8836L48.4304 60.2979L48.4501 63.6121V66.6808L49.3727 66.2666L50.2168 65.883L50.1972 62.8295L50.1775 59.5L49.3531 59.8836Z" fill="#3D4246"/>
<path d="M42.9159 62.7852L41.1493 63.5831L41.1689 66.9126V69.966L42.9355 69.1681V66.1147L42.9159 62.7852Z" fill="#3D4246"/>
<path d="M38.4607 64.794L37.5184 65.2236V68.5378L37.5381 71.6066L38.4804 71.1769L39.2852 70.8087V67.7553L39.2655 64.4258L38.4607 64.794Z" fill="#3D4246"/>
<path d="M46.5467 61.1426L44.7997 61.9405V65.2547L44.8193 68.3234L46.5664 67.5255V64.4721L46.5467 61.1426Z" fill="#3D4246"/>
<path d="M57.4608 56.2324L55.6941 57.015L55.7137 60.3445V63.3979L57.4805 62.6154L57.4608 59.5467V56.2324Z" fill="#3D4246"/>
<path d="M1.66016 13.7432L29.8213 26.5342L59.0605 13.3398L30.8994 0.548828L1.66016 13.7432Z" fill="url(#paint8_linear_347_352)" stroke="#252728"/>
<path d="M9.79311 12.6778C8.73332 13.156 8.72847 13.9311 9.78136 14.4093L28.3797 22.8575C29.4325 23.3357 31.1444 23.336 32.2042 22.8578L50.9241 14.4098C51.9839 13.9315 51.9895 13.1562 50.9366 12.6779L32.3383 4.2298C31.2854 3.75153 29.5729 3.75153 28.5131 4.22978L9.79311 12.6778Z" fill="#111112"/>
<defs>
<radialGradient id="paint0_radial_347_352" cx="0" cy="0" r="1" gradientUnits="userSpaceOnUse" gradientTransform="translate(31.2929 14.6244) rotate(90) scale(14.6244 31.2929)">
<stop offset="0.296875" stop-color="#E06868" stop-opacity="0.5"/>
<stop offset="1" stop-color="#E06868" stop-opacity="0"/>
</radialGradient>
<linearGradient id="paint1_linear_347_352" x1="15.7351" y1="13.6304" x2="15.7351" y2="77.1291" gradientUnits="userSpaceOnUse">
<stop stop-color="#1D1F24"/>
<stop offset="1" stop-color="#323840"/>
</linearGradient>
<linearGradient id="paint2_linear_347_352" x1="59.0479" y1="25.2631" x2="32.3245" y2="25.2631" gradientUnits="userSpaceOnUse">
<stop stop-color="#1F2226"/>
<stop offset="0.49" stop-color="#0F1013"/>
<stop offset="1" stop-color="#1F2226"/>
</linearGradient>
<linearGradient id="paint3_linear_347_352" x1="59.0479" y1="25.2631" x2="32.3245" y2="25.2631" gradientUnits="userSpaceOnUse">
<stop stop-color="#1F2226"/>
<stop offset="0.49" stop-color="#0F1013"/>
<stop offset="1" stop-color="#1F2226"/>
</linearGradient>
<linearGradient id="paint4_linear_347_352" x1="59.0479" y1="33.2846" x2="32.3245" y2="33.2846" gradientUnits="userSpaceOnUse">
<stop stop-color="#1F2226"/>
<stop offset="0.49" stop-color="#0F1013"/>
<stop offset="1" stop-color="#1F2226"/>
</linearGradient>
<linearGradient id="paint5_linear_347_352" x1="59.0479" y1="41.3042" x2="32.3245" y2="41.3042" gradientUnits="userSpaceOnUse">
<stop stop-color="#1F2226"/>
<stop offset="0.49" stop-color="#0F1013"/>
<stop offset="1" stop-color="#1F2226"/>
</linearGradient>
<linearGradient id="paint6_linear_347_352" x1="59.0479" y1="49.3237" x2="32.3245" y2="49.3237" gradientUnits="userSpaceOnUse">
<stop stop-color="#1F2226"/>
<stop offset="0.49" stop-color="#0F1013"/>
<stop offset="1" stop-color="#1F2226"/>
</linearGradient>
<linearGradient id="paint7_linear_347_352" x1="59.0479" y1="57.3432" x2="32.3245" y2="57.3432" gradientUnits="userSpaceOnUse">
<stop stop-color="#1F2226"/>
<stop offset="0.49" stop-color="#0F1013"/>
<stop offset="1" stop-color="#1F2226"/>
</linearGradient>
<linearGradient id="paint8_linear_347_352" x1="30.3634" y1="-0.00685793" x2="30.3634" y2="27.0841" gradientUnits="userSpaceOnUse">
<stop stop-color="#1D1F24"/>
<stop offset="1" stop-color="#323840"/>
</linearGradient>
</defs>
</svg>
