<svg width="63" height="83" viewBox="0 0 63 83" fill="none" xmlns="http://www.w3.org/2000/svg">
<path d="M29.3123 54.2684C29.6105 54.1241 29.9684 54.1241 30.2667 54.2684L58.8789 68.0158C58.9981 68.0699 59.0577 68.1962 58.9981 68.3045C58.9782 68.3586 58.9386 68.3946 58.8789 68.4127L31.0022 81.8173C30.2467 82.1781 29.3521 82.1781 28.5965 81.8173L0.719975 68.4127C0.600648 68.3586 0.540984 68.2323 0.600648 68.106C0.62051 68.0699 0.660312 68.0158 0.719975 67.9977L29.3123 54.2684Z" stroke="#4C4D4E" stroke-opacity="0.25" stroke-miterlimit="10"/>
<ellipse cx="31.2929" cy="14.6244" rx="31.2929" ry="14.6244" transform="matrix(-1 0 0 1 62.5879 52.8867)" fill="url(#paint0_radial_333_86319)"/>
<path d="M30.9492 26.8029L0.365078 13.6465L0.396506 63.787L29.7688 77.1291L30.9492 26.8029Z" fill="url(#paint1_linear_333_86319)"/>
<path d="M13.0566 65.1539L13.0527 66.2449L3.35463 61.8683L3.35858 60.7773L13.0566 65.1539Z" fill="#3D4246"/>
<path d="M13.082 57.6109L13.0781 58.702L3.38001 54.3254L3.38397 53.2344L13.082 57.6109Z" fill="#3D4246"/>
<path d="M13.0762 59.4957L13.0722 60.5867L3.37416 56.2101L3.37812 55.1191L13.0762 59.4957Z" fill="#3D4246"/>
<path d="M13.0684 61.3804L13.0644 62.4715L3.36635 58.0949L3.37031 57.0039L13.0684 61.3804Z" fill="#3D4246"/>
<path d="M13.0605 63.2672L13.0566 64.3582L3.35854 59.9816L3.36248 58.8906L13.0605 63.2672Z" fill="#3D4246"/>
<path d="M13.0566 31.9332L13.0527 33.0242L3.35463 28.6476L3.35858 27.5566L13.0566 31.9332Z" fill="#3D4246"/>
<path d="M13.082 24.3902L13.0781 25.4812L3.38001 21.1047L3.38397 20.0137L13.082 24.3902Z" fill="#3D4246"/>
<path d="M13.0762 26.277L13.0722 27.368L3.37416 22.9914L3.37812 21.9004L13.0762 26.277Z" fill="#3D4246"/>
<path d="M13.0684 28.1617L13.0644 29.2527L3.36635 24.8762L3.37031 23.7852L13.0684 28.1617Z" fill="#3D4246"/>
<path d="M13.0605 30.0484L13.0566 31.1394L3.35854 26.7629L3.36248 25.6719L13.0605 30.0484Z" fill="#3D4246"/>
<path d="M30.2373 27.126L30.2676 76.3545L59.7188 63.0625L59.6885 14.0156L30.2373 27.126Z" fill="#31373F" stroke="#252728"/>
<path d="M32.2076 28.6377L30.9499 28.0664L30.9767 33.4006L32.2344 33.9719L32.2076 28.6377Z" fill="#3D4246"/>
<path d="M58.9844 16.5557L57.7267 15.9844L30.9524 28.0671L32.2101 28.6384L58.9844 16.5557Z" fill="#252728"/>
<path d="M32.2087 28.6374L32.2355 33.9716L59.0098 21.8889L58.983 16.5547L32.2087 28.6374Z" fill="url(#paint2_linear_333_86319)"/>
<path d="M32.2087 28.6374L32.2355 33.9716L59.0098 21.8889L58.983 16.5547L32.2087 28.6374Z" fill="url(#paint3_linear_333_86319)"/>
<path d="M55.375 19.6294L55.3788 20.3582L57.2539 19.512L57.2501 18.7832L55.375 19.6294Z" fill="#3F5D7D"/>
<path d="M52.6568 20.8579L52.6606 21.5867L54.5312 20.7425L54.5275 20.0137L52.6568 20.8579Z" fill="#3F5D7D"/>
<path d="M34.6641 28.9771L34.6679 29.7059L36.543 28.8597L36.5392 28.1309L34.6641 28.9771Z" fill="#3F5D7D"/>
<path d="M34.7788 31.3763C34.6405 31.3135 34.6409 31.1114 34.7796 30.9248C34.9183 30.7383 35.1428 30.638 35.281 30.7008C35.4192 30.7636 35.4188 30.9657 35.2801 31.1522C35.1415 31.3387 34.917 31.439 34.7788 31.3763Z" fill="#3E515A"/>
<path d="M36.2357 30.1779C36.0376 30.2673 35.8817 30.4815 35.8823 30.6563C35.883 30.8312 36.0399 30.9042 36.238 30.8148C36.4326 30.7269 36.5885 30.5127 36.5879 30.3379C36.5873 30.1631 36.4303 30.0901 36.2357 30.1779Z" fill="#3E515A"/>
<path d="M37.1889 30.2903C37.0507 30.2275 37.0511 30.0254 37.1898 29.8389C37.3284 29.6524 37.5529 29.552 37.6911 29.6148C37.8294 29.6776 37.829 29.8797 37.6903 30.0663C37.5516 30.2528 37.3271 30.3531 37.1889 30.2903Z" fill="#3E515A"/>
<path d="M38.394 29.7454C38.2558 29.6826 38.2561 29.4805 38.3948 29.294C38.5335 29.1074 38.758 29.0071 38.8962 29.0699C39.0344 29.1327 39.0341 29.3348 38.8954 29.5213C38.7567 29.7079 38.5322 29.8082 38.394 29.7454Z" fill="#3E515A"/>
<path d="M58.0676 17.6487L58.2289 17.5762L58.2489 21.5005L58.25 21.5483L33.145 32.8775L32.9837 32.95L32.9637 29.0257L32.9626 28.9779L58.0676 17.6487ZM33.1988 32.6599L58.0328 21.4527L58.0138 17.8663L33.1798 29.0735L33.1988 32.6599Z" fill="#3F5D7D"/>
<path d="M32.2076 36.6572L30.9499 36.0859L30.9767 41.4201L32.2344 41.9914L32.2076 36.6572Z" fill="#3D4246"/>
<path d="M58.9844 24.5752L57.7267 24.0039L30.9524 36.0866L32.2101 36.6579L58.9844 24.5752Z" fill="#252728"/>
<path d="M32.2087 36.6589L32.2355 41.9931L59.0098 29.9104L58.983 24.5762L32.2087 36.6589Z" fill="#252728"/>
<path d="M32.2087 36.6589L32.2355 41.9931L59.0098 29.9104L58.983 24.5762L32.2087 36.6589Z" fill="url(#paint4_linear_333_86319)"/>
<path d="M55.377 27.647L55.3808 28.3758L57.2559 27.5296L57.2521 26.8008L55.377 27.647Z" fill="#3F5D7D"/>
<path d="M52.6588 28.8755L52.6625 29.6043L54.5332 28.7601L54.5294 28.0312L52.6588 28.8755Z" fill="#3F5D7D"/>
<path d="M34.666 36.9946L34.6698 37.7235L36.5449 36.8773L36.5412 36.1484L34.666 36.9946Z" fill="#3F5D7D"/>
<path d="M34.7807 39.3977C34.6425 39.335 34.6429 39.1328 34.7815 38.9463C34.9202 38.7598 35.1447 38.6595 35.2829 38.7223C35.4212 38.785 35.4208 38.9872 35.2821 39.1737C35.1434 39.3602 34.9189 39.4605 34.7807 39.3977Z" fill="#3E515A"/>
<path d="M36.2376 38.1955C36.0395 38.2849 35.8836 38.4991 35.8843 38.6739C35.8849 38.8487 36.0418 38.9217 36.2399 38.8323C36.4346 38.7445 36.5905 38.5303 36.5898 38.3555C36.5892 38.1807 36.4323 38.1076 36.2376 38.1955Z" fill="#3E515A"/>
<path d="M37.1889 38.3079C37.0507 38.2451 37.0511 38.043 37.1898 37.8565C37.3284 37.6699 37.5529 37.5696 37.6911 37.6324C37.8294 37.6952 37.829 37.8973 37.6903 38.0838C37.5516 38.2704 37.3271 38.3707 37.1889 38.3079Z" fill="#3E515A"/>
<path d="M38.3959 37.7649C38.2577 37.7021 38.2581 37.5 38.3968 37.3135C38.5355 37.127 38.7599 37.0267 38.8982 37.0894C39.0364 37.1522 39.036 37.3543 38.8973 37.5409C38.7586 37.7274 38.5342 37.8277 38.3959 37.7649Z" fill="#3E515A"/>
<path d="M58.0696 25.6682L58.2309 25.5957L58.2409 27.5578L58.2509 29.52L58.252 29.5678L33.147 40.897L32.9856 40.9695L32.9656 37.0453L32.9646 36.9975L58.0696 25.6682ZM33.2007 40.6795L58.0347 29.4722L58.0158 25.8858L33.1817 37.093L33.2007 40.6795Z" fill="#3F5D7D"/>
<path d="M32.2076 44.6787L30.9499 44.1074L30.9767 49.4416L32.2344 50.0129L32.2076 44.6787Z" fill="#3D4246"/>
<path d="M58.9844 32.5967L57.7267 32.0254L30.9524 44.1081L32.2101 44.6794L58.9844 32.5967Z" fill="#252728"/>
<path d="M32.2087 44.6784L32.2355 50.0126L59.0098 37.9299L58.983 32.5957L32.2087 44.6784Z" fill="#252728"/>
<path d="M32.2087 44.6784L32.2355 50.0126L59.0098 37.9299L58.983 32.5957L32.2087 44.6784Z" fill="url(#paint5_linear_333_86319)"/>
<path d="M55.377 35.6685L55.3808 36.3973L57.2559 35.5511L57.2521 34.8223L55.377 35.6685Z" fill="#3F5D7D"/>
<path d="M52.6588 36.8969L52.6625 37.6257L54.5332 36.7816L54.5294 36.0527L52.6588 36.8969Z" fill="#3F5D7D"/>
<path d="M34.666 45.0142L34.6698 45.743L36.5449 44.8968L36.5412 44.168L34.666 45.0142Z" fill="#3F5D7D"/>
<path d="M34.7807 47.4173C34.6425 47.3545 34.6429 47.1524 34.7815 46.9658C34.9202 46.7793 35.1447 46.679 35.2829 46.7418C35.4212 46.8046 35.4208 47.0067 35.2821 47.1932C35.1434 47.3798 34.9189 47.4801 34.7807 47.4173Z" fill="#3E515A"/>
<path d="M36.2376 46.217C36.0395 46.3064 35.8836 46.5206 35.8843 46.6954C35.8849 46.8702 36.0418 46.9432 36.2399 46.8538C36.4346 46.766 36.5905 46.5518 36.5898 46.377C36.5892 46.2021 36.4323 46.1291 36.2376 46.217Z" fill="#3E515A"/>
<path d="M37.1889 46.3294C37.0507 46.2666 37.0511 46.0645 37.1898 45.878C37.3284 45.6914 37.5529 45.5911 37.6911 45.6539C37.8294 45.7167 37.829 45.9188 37.6903 46.1053C37.5516 46.2919 37.3271 46.3922 37.1889 46.3294Z" fill="#3E515A"/>
<path d="M38.3959 45.7864C38.2577 45.7236 38.2581 45.5215 38.3968 45.335C38.5355 45.1485 38.7599 45.0481 38.8982 45.1109C39.0364 45.1737 39.036 45.3758 38.8973 45.5624C38.7586 45.7489 38.5342 45.8492 38.3959 45.7864Z" fill="#3E515A"/>
<path d="M58.0696 33.6897L58.2309 33.6172L58.2509 37.5415L58.252 37.5893L33.147 48.9185L32.9856 48.991L32.9656 45.0667L32.9646 45.0189L58.0696 33.6897ZM33.2007 48.701L58.0347 37.4937L58.0158 33.9073L33.1817 45.1145L33.2007 48.701Z" fill="#3F5D7D"/>
<path d="M32.2076 52.7002L30.9499 52.1289L30.9767 57.4631L32.2344 58.0344L32.2076 52.7002Z" fill="#3D4246"/>
<path d="M58.9844 40.6162L57.7267 40.0449L30.9524 52.1277L32.2101 52.6989L58.9844 40.6162Z" fill="#252728"/>
<path d="M32.2087 52.698L32.2355 58.0321L59.0098 45.9494L58.983 40.6152L32.2087 52.698Z" fill="#252728"/>
<path d="M32.2087 52.698L32.2355 58.0321L59.0098 45.9494L58.983 40.6152L32.2087 52.698Z" fill="url(#paint6_linear_333_86319)"/>
<path d="M55.377 43.69L55.3808 44.4188L57.2559 43.5726L57.2521 42.8438L55.377 43.69Z" fill="#3F5D7D"/>
<path d="M52.6588 44.9184L52.6625 45.6472L54.5332 44.803L54.5294 44.0742L52.6588 44.9184Z" fill="#3F5D7D"/>
<path d="M34.666 53.0356L34.6698 53.7645L36.5449 52.9183L36.5412 52.1895L34.666 53.0356Z" fill="#3F5D7D"/>
<path d="M34.7807 55.4388C34.6425 55.376 34.6429 55.1739 34.7815 54.9873C34.9202 54.8008 35.1447 54.7005 35.2829 54.7633C35.4212 54.8261 35.4208 55.0282 35.2821 55.2147C35.1434 55.4012 34.9189 55.5015 34.7807 55.4388Z" fill="#3E515A"/>
<path d="M36.2376 54.2384C36.0395 54.3279 35.8836 54.542 35.8843 54.7169C35.8849 54.8917 36.0418 54.9647 36.2399 54.8753C36.4346 54.7875 36.5905 54.5733 36.5898 54.3985C36.5892 54.2236 36.4323 54.1506 36.2376 54.2384Z" fill="#3E515A"/>
<path d="M37.1909 54.3509C37.0526 54.2881 37.053 54.086 37.1917 53.8994C37.3304 53.7129 37.5549 53.6126 37.6931 53.6754C37.8313 53.7382 37.8309 53.9403 37.6922 54.1268C37.5536 54.3133 37.3291 54.4137 37.1909 54.3509Z" fill="#3E515A"/>
<path d="M38.3959 53.8079C38.2577 53.7451 38.2581 53.543 38.3968 53.3565C38.5355 53.1699 38.7599 53.0696 38.8982 53.1324C39.0364 53.1952 39.036 53.3973 38.8973 53.5838C38.7586 53.7704 38.5342 53.8707 38.3959 53.8079Z" fill="#3E515A"/>
<path d="M58.0696 41.7092L58.2309 41.6367L58.2509 45.561L58.252 45.6088L33.147 56.938L32.9856 57.0106L32.9656 53.0863L32.9646 53.0385L58.0696 41.7092ZM33.2007 56.7205L58.0347 45.5132L58.0158 41.9268L33.1817 53.1341L33.2007 56.7205Z" fill="#3F5D7D"/>
<path d="M32.2076 60.7178L30.9499 60.1465L30.9767 65.4807L32.2344 66.052L32.2076 60.7178Z" fill="#3D4246"/>
<path d="M58.9844 48.6338L57.7267 48.0625L30.9524 60.1452L32.2101 60.7165L58.9844 48.6338Z" fill="#252728"/>
<path d="M32.2087 60.7175L32.2355 66.0517L59.0098 53.9689L58.983 48.6348L32.2087 60.7175Z" fill="#252728"/>
<path d="M32.2087 60.7175L32.2355 66.0517L59.0098 53.9689L58.983 48.6348L32.2087 60.7175Z" fill="url(#paint7_linear_333_86319)"/>
<path d="M55.377 51.7095L55.3808 52.4383L57.2559 51.5921L57.2521 50.8633L55.377 51.7095Z" fill="#3F5D7D"/>
<path d="M52.6568 52.9379L52.6606 53.6668L54.5312 52.8226L54.5275 52.0938L52.6568 52.9379Z" fill="#3F5D7D"/>
<path d="M34.666 61.0552L34.6698 61.784L36.5449 60.9378L36.5412 60.209L34.666 61.0552Z" fill="#3F5D7D"/>
<path d="M34.7807 63.4563C34.6425 63.3936 34.6429 63.1914 34.7815 63.0049C34.9202 62.8184 35.1447 62.7181 35.2829 62.7808C35.4212 62.8436 35.4208 63.0457 35.2821 63.2323C35.1434 63.4188 34.9189 63.5191 34.7807 63.4563Z" fill="#3E515A"/>
<path d="M36.2376 62.258C36.0395 62.3474 35.8836 62.5616 35.8843 62.7364C35.8849 62.9112 36.0418 62.9842 36.2399 62.8948C36.4346 62.807 36.5905 62.5928 36.5898 62.418C36.5892 62.2432 36.4323 62.1701 36.2376 62.258Z" fill="#3E515A"/>
<path d="M37.1889 62.3704C37.0507 62.3076 37.0511 62.1055 37.1898 61.919C37.3284 61.7324 37.5529 61.6321 37.6911 61.6949C37.8294 61.7577 37.829 61.9598 37.6903 62.1463C37.5516 62.3329 37.3271 62.4332 37.1889 62.3704Z" fill="#3E515A"/>
<path d="M38.3979 61.8255C38.2597 61.7627 38.2601 61.5606 38.3987 61.3741C38.5374 61.1875 38.7619 61.0872 38.9001 61.15C39.0383 61.2128 39.038 61.4149 38.8993 61.6014C38.7606 61.788 38.5361 61.8883 38.3979 61.8255Z" fill="#3E515A"/>
<path d="M58.0696 49.7288L58.2309 49.6562L58.2509 53.5805L58.252 53.6283L33.147 64.9576L32.9856 65.0301L32.9656 61.1058L32.9646 61.058L58.0696 49.7288ZM33.2007 64.74L58.0347 53.5327L58.0158 49.9463L33.1817 61.1536L33.2007 64.74Z" fill="#3F5D7D"/>
<path d="M33.8075 66.8662V70.1804L33.8271 73.2492L35.5742 72.4513V69.3979L35.5546 66.0684L33.8075 66.8662Z" fill="#3D4246"/>
<path d="M53.7342 57.8574L51.9872 58.6553L52.0068 61.9849V65.0382L53.7734 64.2404L53.7538 61.187L53.7342 57.8574Z" fill="#3D4246"/>
<path d="M49.2769 59.8836L48.3542 60.2979L48.3739 63.6121V66.6808L49.2965 66.2666L50.1406 65.883L50.121 62.8295L50.1013 59.5L49.2769 59.8836Z" fill="#3D4246"/>
<path d="M42.8397 62.7852L41.0731 63.5831L41.0927 66.9126V69.966L42.8594 69.1681V66.1147L42.8397 62.7852Z" fill="#3D4246"/>
<path d="M38.3846 64.794L37.4422 65.2236V68.5378L37.4619 71.6066L38.4042 71.1769L39.209 70.8087V67.7553L39.1893 64.4258L38.3846 64.794Z" fill="#3D4246"/>
<path d="M46.4706 61.1426L44.7235 61.9405V65.2547L44.7431 68.3234L46.4902 67.5255V64.4721L46.4706 61.1426Z" fill="#3D4246"/>
<path d="M57.3847 56.2324L55.6179 57.015L55.6376 60.3445V63.3979L57.4043 62.6154L57.3847 59.5467V56.2324Z" fill="#3D4246"/>
<path d="M1.58008 13.7432L29.7412 26.5342L58.9805 13.3398L30.8193 0.548828L1.58008 13.7432Z" fill="url(#paint8_linear_333_86319)" stroke="#252728"/>
<path d="M9.71694 12.6778C8.65715 13.156 8.6523 13.9311 9.70518 14.4093L28.3035 22.8575C29.3564 23.3357 31.0682 23.336 32.128 22.8578L50.848 14.4098C51.9078 13.9315 51.9134 13.1562 50.8604 12.6779L32.2621 4.2298C31.2092 3.75153 29.4967 3.75153 28.4369 4.22978L9.71694 12.6778Z" fill="#111112"/>
<defs>
<radialGradient id="paint0_radial_333_86319" cx="0" cy="0" r="1" gradientUnits="userSpaceOnUse" gradientTransform="translate(31.2929 14.6244) rotate(90) scale(14.6244 31.2929)">
<stop offset="0.296875" stop-color="#4C4D4E" stop-opacity="0.5"/>
<stop offset="1" stop-color="#4C4D4E" stop-opacity="0"/>
</radialGradient>
<linearGradient id="paint1_linear_333_86319" x1="15.659" y1="13.6304" x2="15.659" y2="77.1291" gradientUnits="userSpaceOnUse">
<stop stop-color="#1D1F24"/>
<stop offset="1" stop-color="#323840"/>
</linearGradient>
<linearGradient id="paint2_linear_333_86319" x1="58.9717" y1="25.2631" x2="32.2483" y2="25.2631" gradientUnits="userSpaceOnUse">
<stop stop-color="#1F2226"/>
<stop offset="0.49" stop-color="#0F1013"/>
<stop offset="1" stop-color="#1F2226"/>
</linearGradient>
<linearGradient id="paint3_linear_333_86319" x1="58.9717" y1="25.2631" x2="32.2483" y2="25.2631" gradientUnits="userSpaceOnUse">
<stop stop-color="#1F2226"/>
<stop offset="0.49" stop-color="#0F1013"/>
<stop offset="1" stop-color="#1F2226"/>
</linearGradient>
<linearGradient id="paint4_linear_333_86319" x1="58.9717" y1="33.2846" x2="32.2483" y2="33.2846" gradientUnits="userSpaceOnUse">
<stop stop-color="#1F2226"/>
<stop offset="0.49" stop-color="#0F1013"/>
<stop offset="1" stop-color="#1F2226"/>
</linearGradient>
<linearGradient id="paint5_linear_333_86319" x1="58.9717" y1="41.3042" x2="32.2483" y2="41.3042" gradientUnits="userSpaceOnUse">
<stop stop-color="#1F2226"/>
<stop offset="0.49" stop-color="#0F1013"/>
<stop offset="1" stop-color="#1F2226"/>
</linearGradient>
<linearGradient id="paint6_linear_333_86319" x1="58.9717" y1="49.3237" x2="32.2483" y2="49.3237" gradientUnits="userSpaceOnUse">
<stop stop-color="#1F2226"/>
<stop offset="0.49" stop-color="#0F1013"/>
<stop offset="1" stop-color="#1F2226"/>
</linearGradient>
<linearGradient id="paint7_linear_333_86319" x1="58.9717" y1="57.3432" x2="32.2483" y2="57.3432" gradientUnits="userSpaceOnUse">
<stop stop-color="#1F2226"/>
<stop offset="0.49" stop-color="#0F1013"/>
<stop offset="1" stop-color="#1F2226"/>
</linearGradient>
<linearGradient id="paint8_linear_333_86319" x1="30.2833" y1="-0.00685793" x2="30.2833" y2="27.0841" gradientUnits="userSpaceOnUse">
<stop stop-color="#1D1F24"/>
<stop offset="1" stop-color="#323840"/>
</linearGradient>
</defs>
</svg>
