<svg width="63" height="83" viewBox="0 0 63 83" fill="none" xmlns="http://www.w3.org/2000/svg">
<path d="M29.3136 54.2704C29.6118 54.126 29.9698 54.126 30.268 54.2704L58.8828 68.019C59.002 68.0731 59.0616 68.1994 59.002 68.3077C58.9821 68.3618 58.9425 68.3978 58.8828 68.4159L31.0037 81.8217C30.2481 82.1825 29.3534 82.1825 28.5977 81.8217L0.71876 68.4159C0.599422 68.3618 0.539753 68.2355 0.599422 68.1092C0.619285 68.0731 0.659091 68.019 0.71876 68.0009L29.3136 54.2704Z" stroke="#47B735" stroke-opacity="0.25" stroke-miterlimit="10"/>
<ellipse cx="31.2956" cy="14.6257" rx="31.2956" ry="14.6257" transform="matrix(-1 0 0 1 62.5918 52.8887)" fill="url(#paint0_radial_347_534)"/>
<path d="M30.9512 26.806L0.364343 13.6484L0.395774 63.7934L29.7706 77.1366L30.9512 26.806Z" fill="url(#paint1_linear_347_534)"/>
<path d="M13.0586 65.1601L13.0546 66.2512L3.35573 61.8743L3.35968 60.7832L13.0586 65.1601Z" fill="#3D4246"/>
<path d="M13.084 57.6152L13.08 58.7063L3.38111 54.3294L3.38507 53.2383L13.084 57.6152Z" fill="#3D4246"/>
<path d="M13.0781 59.5019L13.0742 60.593L3.37526 56.2161L3.37923 55.125L13.0781 59.5019Z" fill="#3D4246"/>
<path d="M13.0703 61.3867L13.0664 62.4778L3.36745 58.1009L3.37141 57.0098L13.0703 61.3867Z" fill="#3D4246"/>
<path d="M13.0645 63.2695L13.0605 64.3606L3.36159 59.9837L3.36554 58.8926L13.0645 63.2695Z" fill="#3D4246"/>
<path d="M13.0586 31.9355L13.0546 33.0266L3.35573 28.6497L3.35968 27.5586L13.0586 31.9355Z" fill="#3D4246"/>
<path d="M13.084 24.3926L13.08 25.4837L3.38111 21.1067L3.38507 20.0156L13.084 24.3926Z" fill="#3D4246"/>
<path d="M13.0781 26.2793L13.0742 27.3704L3.37526 22.9934L3.37923 21.9023L13.0781 26.2793Z" fill="#3D4246"/>
<path d="M13.0703 28.1641L13.0664 29.2552L3.36745 24.8782L3.37141 23.7871L13.0703 28.1641Z" fill="#3D4246"/>
<path d="M13.0645 30.0508L13.0605 31.1419L3.36159 26.7649L3.36554 25.6738L13.0645 30.0508Z" fill="#3D4246"/>
<path d="M30.2383 27.1279L30.2686 76.3604L59.7227 63.0674L59.6924 14.0156L30.2383 27.1279Z" fill="#31373F" stroke="#252728"/>
<path d="M32.2076 28.6436L30.9498 28.0723L30.9766 33.4069L32.2344 33.9782L32.2076 28.6436Z" fill="#3D4246"/>
<path d="M58.9902 16.5596L57.7325 15.9883L30.9558 28.0721L32.2136 28.6434L58.9902 16.5596Z" fill="#252728"/>
<path d="M32.2102 28.6424L32.237 33.977L59.0137 21.8932L58.9869 16.5586L32.2102 28.6424Z" fill="url(#paint2_linear_347_534)"/>
<path d="M32.2102 28.6424L32.237 33.977L59.0137 21.8932L58.9869 16.5586L32.2102 28.6424Z" fill="url(#paint3_linear_347_534)"/>
<path d="M55.3807 19.6334L55.3845 20.3623L57.2598 19.516L57.256 18.7871L55.3807 19.6334Z" fill="#3F5D7D"/>
<path d="M52.6605 20.8638L52.6643 21.5927L54.5352 20.7484L54.5314 20.0195L52.6605 20.8638Z" fill="#3F5D7D"/>
<path d="M34.6659 28.981L34.6697 29.7099L36.5449 28.8637L36.5412 28.1348L34.6659 28.981Z" fill="#3F5D7D"/>
<path d="M34.7826 31.3822C34.6444 31.3194 34.6447 31.1172 34.7834 30.9307C34.9221 30.7442 35.1466 30.6438 35.2849 30.7066C35.4231 30.7694 35.4227 30.9715 35.284 31.1581C35.1453 31.3446 34.9208 31.445 34.7826 31.3822Z" fill="#3E515A"/>
<path d="M36.2376 30.1799C36.0395 30.2693 35.8836 30.4835 35.8842 30.6583C35.8848 30.8332 36.0418 30.9062 36.2399 30.8168C36.4346 30.7289 36.5905 30.5147 36.5898 30.3399C36.5892 30.165 36.4323 30.092 36.2376 30.1799Z" fill="#3E515A"/>
<path d="M37.1888 30.2943C37.0506 30.2315 37.051 30.0294 37.1897 29.8428C37.3284 29.6563 37.5529 29.5559 37.6911 29.6187C37.8293 29.6815 37.829 29.8836 37.6903 30.0702C37.5516 30.2567 37.3271 30.3571 37.1888 30.2943Z" fill="#3E515A"/>
<path d="M38.3959 29.7474C38.2576 29.6846 38.258 29.4825 38.3967 29.2959C38.5354 29.1094 38.7599 29.0091 38.8981 29.0719C39.0364 29.1346 39.036 29.3368 38.8973 29.5233C38.7586 29.7099 38.5341 29.8102 38.3959 29.7474Z" fill="#3E515A"/>
<path d="M58.0734 17.6526L58.2348 17.5801L58.2548 21.5047L58.2559 21.5525L33.1487 32.8827L32.9873 32.9553L32.9673 29.0306L32.9662 28.9828L58.0734 17.6526ZM33.2024 32.6652L58.0387 21.4569L58.0197 17.8702L33.1835 29.0785L33.2024 32.6652Z" fill="#3F5D7D"/>
<path d="M32.2076 36.6612L30.9498 36.0898L30.9766 41.4245L32.2344 41.9958L32.2076 36.6612Z" fill="#3D4246"/>
<path d="M58.9902 24.5772L57.7325 24.0059L30.9558 36.0897L32.2136 36.661L58.9902 24.5772Z" fill="#252728"/>
<path d="M32.2102 36.6619L32.237 41.9966L59.0137 29.9128L58.9869 24.5781L32.2102 36.6619Z" fill="#252728"/>
<path d="M32.2102 36.6619L32.237 41.9966L59.0137 29.9128L58.9869 24.5781L32.2102 36.6619Z" fill="url(#paint4_linear_347_534)"/>
<path d="M55.3827 27.649L55.3864 28.3779L57.2617 27.5316L57.2579 26.8027L55.3827 27.649Z" fill="#3F5D7D"/>
<path d="M52.6605 28.8755L52.6643 29.6044L54.5352 28.7601L54.5314 28.0312L52.6605 28.8755Z" fill="#3F5D7D"/>
<path d="M34.6659 36.9947L34.6697 37.7236L36.5449 36.8773L36.5412 36.1484L34.6659 36.9947Z" fill="#3F5D7D"/>
<path d="M34.7826 39.3978C34.6444 39.335 34.6447 39.1329 34.7834 38.9463C34.9221 38.7598 35.1466 38.6595 35.2849 38.7222C35.4231 38.785 35.4227 38.9872 35.284 39.1737C35.1453 39.3603 34.9208 39.4606 34.7826 39.3978Z" fill="#3E515A"/>
<path d="M36.2415 38.1994C36.0434 38.2888 35.8875 38.503 35.8881 38.6779C35.8887 38.8527 36.0457 38.9257 36.2438 38.8363C36.4385 38.7485 36.5944 38.5342 36.5937 38.3594C36.5931 38.1846 36.4362 38.1115 36.2415 38.1994Z" fill="#3E515A"/>
<path d="M37.1928 38.3099C37.0545 38.2471 37.0549 38.045 37.1936 37.8584C37.3323 37.6719 37.5568 37.5716 37.695 37.6344C37.8333 37.6971 37.8329 37.8993 37.6942 38.0858C37.5555 38.2724 37.331 38.3727 37.1928 38.3099Z" fill="#3E515A"/>
<path d="M38.4017 37.7689C38.2635 37.7061 38.2639 37.504 38.4026 37.3174C38.5413 37.1309 38.7658 37.0305 38.904 37.0933C39.0422 37.1561 39.0419 37.3583 38.9032 37.5448C38.7645 37.7314 38.54 37.8317 38.4017 37.7689Z" fill="#3E515A"/>
<path d="M58.0734 25.6721L58.2348 25.5996L58.2448 27.5619L58.2548 29.5242L58.2559 29.572L33.1487 40.9023L32.9873 40.9748L32.9673 37.0502L32.9662 37.0024L58.0734 25.6721ZM33.2024 40.6847L58.0386 29.4764L58.0197 25.8897L33.1834 37.098L33.2024 40.6847Z" fill="#3F5D7D"/>
<path d="M32.2076 44.6827L30.9498 44.1113L30.9766 49.446L32.2344 50.0173L32.2076 44.6827Z" fill="#3D4246"/>
<path d="M58.9883 32.5987L57.7305 32.0273L30.9539 44.1111L32.2117 44.6825L58.9883 32.5987Z" fill="#252728"/>
<path d="M32.2102 44.6834L32.237 50.0181L59.0137 37.9343L58.9869 32.5996L32.2102 44.6834Z" fill="#252728"/>
<path d="M32.2102 44.6834L32.237 50.0181L59.0137 37.9343L58.9869 32.5996L32.2102 44.6834Z" fill="url(#paint5_linear_347_534)"/>
<path d="M55.3827 35.6724L55.3864 36.4013L57.2617 35.5551L57.2579 34.8262L55.3827 35.6724Z" fill="#3F5D7D"/>
<path d="M52.6605 36.9029L52.6643 37.6317L54.5352 36.7875L54.5314 36.0586L52.6605 36.9029Z" fill="#3F5D7D"/>
<path d="M34.6659 45.022L34.6697 45.7509L36.5449 44.9047L36.5412 44.1758L34.6659 45.022Z" fill="#3F5D7D"/>
<path d="M34.7826 47.4232C34.6444 47.3604 34.6447 47.1583 34.7834 46.9717C34.9221 46.7852 35.1466 46.6848 35.2849 46.7476C35.4231 46.8104 35.4227 47.0126 35.284 47.1991C35.1453 47.3857 34.9208 47.486 34.7826 47.4232Z" fill="#3E515A"/>
<path d="M36.2415 46.2209C36.0434 46.3103 35.8875 46.5245 35.8881 46.6993C35.8887 46.8742 36.0457 46.9472 36.2438 46.8578C36.4385 46.7699 36.5944 46.5557 36.5937 46.3809C36.5931 46.206 36.4362 46.133 36.2415 46.2209Z" fill="#3E515A"/>
<path d="M37.1928 46.3353C37.0545 46.2725 37.0549 46.0704 37.1936 45.8838C37.3323 45.6973 37.5568 45.597 37.695 45.6597C37.8333 45.7225 37.8329 45.9247 37.6942 46.1112C37.5555 46.2978 37.331 46.3981 37.1928 46.3353Z" fill="#3E515A"/>
<path d="M38.4017 45.7904C38.2635 45.7276 38.2639 45.5255 38.4026 45.3389C38.5413 45.1524 38.7658 45.052 38.904 45.1148C39.0422 45.1776 39.0419 45.3797 38.9032 45.5663C38.7645 45.7528 38.54 45.8532 38.4017 45.7904Z" fill="#3E515A"/>
<path d="M58.0734 33.6936L58.2348 33.6211L58.2548 37.5457L58.2559 37.5935L33.1487 48.9238L32.9873 48.9963L32.9673 45.0717L32.9662 45.0239L58.0734 33.6936ZM33.2024 48.7062L58.0386 37.4979L58.0197 33.9112L33.1834 45.1195L33.2024 48.7062Z" fill="#3F5D7D"/>
<path d="M32.2076 52.7002L30.9498 52.1289L30.9766 57.4636L32.2344 58.0349L32.2076 52.7002Z" fill="#3D4246"/>
<path d="M58.9902 40.6182L57.7325 40.0469L30.9558 52.1307L32.2136 52.702L58.9902 40.6182Z" fill="#252728"/>
<path d="M32.2102 52.701L32.237 58.0356L59.0137 45.9518L58.9869 40.6172L32.2102 52.701Z" fill="#252728"/>
<path d="M32.2102 52.701L32.237 58.0356L59.0137 45.9518L58.9869 40.6172L32.2102 52.701Z" fill="url(#paint6_linear_347_534)"/>
<path d="M55.3827 43.6939L55.3864 44.4228L57.2617 43.5765L57.2579 42.8477L55.3827 43.6939Z" fill="#3F5D7D"/>
<path d="M52.6605 44.9244L52.6643 45.6532L54.5352 44.809L54.5314 44.0801L52.6605 44.9244Z" fill="#3F5D7D"/>
<path d="M34.6659 53.0396L34.6697 53.7685L36.5449 52.9222L36.5412 52.1934L34.6659 53.0396Z" fill="#3F5D7D"/>
<path d="M34.7826 55.4408C34.6444 55.378 34.6447 55.1758 34.7834 54.9893C34.9221 54.8027 35.1466 54.7024 35.2849 54.7652C35.4231 54.828 35.4227 55.0301 35.284 55.2167C35.1453 55.4032 34.9208 55.5036 34.7826 55.4408Z" fill="#3E515A"/>
<path d="M36.2415 54.2424C36.0434 54.3318 35.8875 54.546 35.8881 54.7208C35.8887 54.8957 36.0457 54.9687 36.2438 54.8793C36.4385 54.7914 36.5944 54.5772 36.5937 54.4024C36.5931 54.2275 36.4362 54.1545 36.2415 54.2424Z" fill="#3E515A"/>
<path d="M37.1928 54.3568C37.0545 54.294 37.0549 54.0919 37.1936 53.9053C37.3323 53.7188 37.5568 53.6184 37.695 53.6812C37.8333 53.744 37.8329 53.9462 37.6942 54.1327C37.5555 54.3193 37.331 54.4196 37.1928 54.3568Z" fill="#3E515A"/>
<path d="M38.4017 53.8119C38.2635 53.7491 38.2639 53.5469 38.4026 53.3604C38.5413 53.1738 38.7658 53.0735 38.904 53.1363C39.0422 53.1991 39.0419 53.4012 38.9032 53.5878C38.7645 53.7743 38.54 53.8746 38.4017 53.8119Z" fill="#3E515A"/>
<path d="M58.0734 41.7112L58.2348 41.6387L58.2548 45.5633L58.2559 45.6111L33.1487 56.9413L32.9873 57.0139L32.9673 53.0892L32.9662 53.0414L58.0734 41.7112ZM33.2024 56.7237L58.0386 45.5155L58.0197 41.9288L33.1834 53.137L33.2024 56.7237Z" fill="#3F5D7D"/>
<path d="M32.2076 60.7217L30.9498 60.1504L30.9766 65.485L32.2344 66.0564L32.2076 60.7217Z" fill="#3D4246"/>
<path d="M58.9883 48.6377L57.7305 48.0664L30.9539 60.1502L32.2117 60.7215L58.9883 48.6377Z" fill="#252728"/>
<path d="M32.2102 60.7225L32.237 66.0571L59.0137 53.9733L58.9869 48.6387L32.2102 60.7225Z" fill="#252728"/>
<path d="M32.2102 60.7225L32.237 66.0571L59.0137 53.9733L58.9869 48.6387L32.2102 60.7225Z" fill="url(#paint7_linear_347_534)"/>
<path d="M55.3827 51.7154L55.3864 52.4443L57.2617 51.598L57.2579 50.8691L55.3827 51.7154Z" fill="#3F5D7D"/>
<path d="M52.6605 52.9419L52.6643 53.6708L54.5352 52.8265L54.5314 52.0977L52.6605 52.9419Z" fill="#3F5D7D"/>
<path d="M34.6659 61.0611L34.6697 61.79L36.5449 60.9437L36.5412 60.2148L34.6659 61.0611Z" fill="#3F5D7D"/>
<path d="M34.7826 63.4662C34.6444 63.4034 34.6447 63.2012 34.7834 63.0147C34.9221 62.8281 35.1466 62.7278 35.2849 62.7906C35.4231 62.8534 35.4227 63.0555 35.284 63.2421C35.1453 63.4286 34.9208 63.5289 34.7826 63.4662Z" fill="#3E515A"/>
<path d="M36.2415 62.2638C36.0434 62.3533 35.8875 62.5675 35.8881 62.7423C35.8887 62.9171 36.0457 62.9902 36.2438 62.9008C36.4385 62.8129 36.5944 62.5987 36.5937 62.4239C36.5931 62.249 36.4362 62.176 36.2415 62.2638Z" fill="#3E515A"/>
<path d="M37.1928 62.3744C37.0545 62.3116 37.0549 62.1094 37.1936 61.9229C37.3323 61.7363 37.5568 61.636 37.695 61.6988C37.8333 61.7616 37.8329 61.9637 37.6942 62.1503C37.5555 62.3368 37.331 62.4371 37.1928 62.3744Z" fill="#3E515A"/>
<path d="M38.4017 61.8314C38.2635 61.7686 38.2639 61.5665 38.4026 61.3799C38.5413 61.1934 38.7658 61.093 38.904 61.1558C39.0422 61.2186 39.0419 61.4208 38.9032 61.6073C38.7645 61.7939 38.54 61.8942 38.4017 61.8314Z" fill="#3E515A"/>
<path d="M58.0734 49.7327L58.2348 49.6602L58.2548 53.5848L58.2559 53.6326L33.1487 64.9628L32.9873 65.0354L32.9673 61.1107L32.9662 61.0629L58.0734 49.7327ZM33.2024 64.7453L58.0386 53.537L58.0197 49.9503L33.1834 61.1585L33.2024 64.7453Z" fill="#3F5D7D"/>
<path d="M33.8112 66.8721V70.1867L33.8309 73.2557L35.5781 72.4577V69.404L35.5585 66.0742L33.8112 66.8721Z" fill="#3D4246"/>
<path d="M53.7382 57.8652L51.9909 58.6632L52.0106 61.993V65.0467L53.7773 64.2488L53.7577 61.1951L53.7382 57.8652Z" fill="#3D4246"/>
<path d="M49.2807 59.8914L48.358 60.3058L48.3776 63.6203V66.6893L49.3004 66.275L50.1445 65.8914L50.1249 62.8376L50.1052 59.5078L49.2807 59.8914Z" fill="#3D4246"/>
<path d="M42.8417 62.791L41.0749 63.589L41.0945 66.9188V69.9725L42.8613 69.1745V66.1209L42.8417 62.791Z" fill="#3D4246"/>
<path d="M38.3865 64.8019L37.444 65.2315V68.546L37.4637 71.615L38.4061 71.1853L39.2109 70.8171V67.7634L39.1913 64.4336L38.3865 64.8019Z" fill="#3D4246"/>
<path d="M46.4745 61.1504L44.7272 61.9484V65.2628L44.7469 68.3318L46.4941 67.5339V64.4802L46.4745 61.1504Z" fill="#3D4246"/>
<path d="M57.3866 56.2383L55.6197 57.0209L55.6394 60.3507V63.4044L57.4062 62.6218L57.3866 59.5529V56.2383Z" fill="#3D4246"/>
<path d="M1.58105 13.7441L29.7451 26.5371L58.9854 13.3418L30.8223 0.548828L1.58105 13.7441Z" fill="url(#paint8_linear_347_534)" stroke="#252728"/>
<path d="M9.71716 12.6766C8.65728 13.1549 8.65243 13.93 9.70541 14.4083L28.3053 22.8572C29.3583 23.3355 31.0703 23.3358 32.1302 22.8575L50.8518 14.4088C51.9117 13.9305 51.9173 13.155 50.8643 12.6767L32.2643 4.22788C31.2113 3.74957 29.4987 3.74957 28.4388 4.22786L9.71716 12.6766Z" fill="#111112"/>
<defs>
<radialGradient id="paint0_radial_347_534" cx="0" cy="0" r="1" gradientUnits="userSpaceOnUse" gradientTransform="translate(31.2956 14.6257) rotate(90) scale(14.6257 31.2956)">
<stop offset="0.296875" stop-color="#00FF38" stop-opacity="0.5"/>
<stop offset="1" stop-color="#00FF38" stop-opacity="0"/>
</radialGradient>
<linearGradient id="paint1_linear_347_534" x1="15.6596" y1="13.6324" x2="15.6596" y2="77.1366" gradientUnits="userSpaceOnUse">
<stop stop-color="#1D1F24"/>
<stop offset="1" stop-color="#323840"/>
</linearGradient>
<linearGradient id="paint2_linear_347_534" x1="58.9756" y1="25.2678" x2="32.2499" y2="25.2678" gradientUnits="userSpaceOnUse">
<stop stop-color="#1F2226"/>
<stop offset="0.49" stop-color="#0F1013"/>
<stop offset="1" stop-color="#1F2226"/>
</linearGradient>
<linearGradient id="paint3_linear_347_534" x1="58.9756" y1="25.2678" x2="32.2499" y2="25.2678" gradientUnits="userSpaceOnUse">
<stop stop-color="#1F2226"/>
<stop offset="0.49" stop-color="#0F1013"/>
<stop offset="1" stop-color="#1F2226"/>
</linearGradient>
<linearGradient id="paint4_linear_347_534" x1="58.9756" y1="33.2874" x2="32.2499" y2="33.2874" gradientUnits="userSpaceOnUse">
<stop stop-color="#1F2226"/>
<stop offset="0.49" stop-color="#0F1013"/>
<stop offset="1" stop-color="#1F2226"/>
</linearGradient>
<linearGradient id="paint5_linear_347_534" x1="58.9756" y1="41.3088" x2="32.2499" y2="41.3088" gradientUnits="userSpaceOnUse">
<stop stop-color="#1F2226"/>
<stop offset="0.49" stop-color="#0F1013"/>
<stop offset="1" stop-color="#1F2226"/>
</linearGradient>
<linearGradient id="paint6_linear_347_534" x1="58.9756" y1="49.3264" x2="32.2499" y2="49.3264" gradientUnits="userSpaceOnUse">
<stop stop-color="#1F2226"/>
<stop offset="0.49" stop-color="#0F1013"/>
<stop offset="1" stop-color="#1F2226"/>
</linearGradient>
<linearGradient id="paint7_linear_347_534" x1="58.9756" y1="57.3479" x2="32.2499" y2="57.3479" gradientUnits="userSpaceOnUse">
<stop stop-color="#1F2226"/>
<stop offset="0.49" stop-color="#0F1013"/>
<stop offset="1" stop-color="#1F2226"/>
</linearGradient>
<linearGradient id="paint8_linear_347_534" x1="30.2865" y1="-0.00685853" x2="30.2865" y2="27.0865" gradientUnits="userSpaceOnUse">
<stop stop-color="#1D1F24"/>
<stop offset="1" stop-color="#323840"/>
</linearGradient>
</defs>
</svg>
