<svg width="409" height="367" viewBox="0 0 409 367" fill="none" xmlns="http://www.w3.org/2000/svg">
<path d="M135.705 247.572L127.904 290.789H279.25L270.968 247.572H135.705Z" stroke="#4AE5B6" stroke-opacity="0.5"/>
<ellipse cx="78.3357" cy="36.6093" rx="78.3357" ry="36.6093" transform="matrix(-1 0 0 1 281.766 231.596)" fill="url(#paint0_radial_414_463)"/>
<g filter="url(#filter0_df_414_463)">
<path d="M308.753 244.821V245.65C308.578 257.084 303.114 266.089 295.269 266.089H217.514C209.354 266.089 203.68 256.551 203.68 244.702C203.68 243.162 203.785 241.562 203.96 239.963L206.902 216.147L207.778 209.156C209.179 197.9 216.499 189.191 224.099 189.25L288.369 189.724C295.864 189.783 303.114 198.492 304.515 209.689L305.321 215.91L308.438 240.259C308.648 241.74 308.753 243.28 308.753 244.821Z" fill="url(#paint1_linear_414_463)"/>
</g>
<g filter="url(#filter1_df_414_463)">
<path d="M203.682 244.821V245.65C203.509 257.084 198.118 266.089 190.376 266.089H113.651C105.599 266.089 100 256.551 100 244.702C100 243.162 100.104 241.562 100.276 239.963L103.18 216.147L104.044 209.156C105.426 197.9 112.649 189.191 120.149 189.25L183.568 189.724C190.964 189.783 198.118 198.492 199.5 209.689L200.295 215.91L203.371 240.259C203.578 241.74 203.682 243.28 203.682 244.821Z" fill="url(#paint2_linear_414_463)"/>
</g>
<path d="M119.347 72.9578L121 64.0312L130.5 72.9578H119.347Z" fill="#252728"/>
<path d="M287.372 72.9578L285.5 62.0312L275 72.9578H287.372Z" fill="#252728"/>
<path d="M138.999 0.5H267.718C272.415 0.5 276.407 3.93302 277.11 8.57715L285.135 61.5352C286.006 67.2832 281.556 72.4579 275.742 72.458H130.975C125.161 72.4578 120.711 67.2831 121.582 61.5352L129.606 8.57715C130.31 3.93302 134.302 0.5 138.999 0.5Z" fill="url(#paint3_linear_414_463)" stroke="#252728"/>
<path d="M261.437 18.6321C260.784 13.655 256.542 9.93359 251.522 9.93359H156.735C151.687 9.93359 147.43 13.6964 146.811 18.7067L142.691 52.031C141.954 57.9951 146.606 63.2579 152.616 63.2579H255.897C261.936 63.2579 266.598 57.9447 265.811 51.9564L261.437 18.6321Z" fill="#111112"/>
<path d="M286.655 73.6895L284.574 282.327H122.192L119.852 73.6895H286.655Z" fill="url(#paint4_linear_414_463)" stroke="#252728"/>
<g filter="url(#filter2_d_414_463)">
<path d="M128.233 81.5547L280.887 81.7771L280.386 105.603L128.628 105.141L128.233 81.5547Z" fill="url(#paint5_linear_414_463)"/>
<path d="M280.377 82.2764L279.896 105.101L129.119 104.642L128.741 82.0547L280.377 82.2764Z" stroke="#252728"/>
</g>
<path d="M276.189 86.3848L275.746 101.44L133.277 101.132L132.928 86.2363L276.189 86.3848Z" stroke="#3F5D7D"/>
<path d="M149.16 89.9287L149.13 92.5527L137.127 92.4873L137.102 89.8975L149.16 89.9287Z" fill="#3F5D7D" stroke="#3F5D7D"/>
<path d="M166.936 89.9287L166.905 92.5527L154.902 92.4873L154.877 89.8975L166.936 89.9287Z" fill="#3F5D7D" stroke="#3F5D7D"/>
<path d="M271.492 89.9287L271.462 92.5527L259.459 92.4873L259.434 89.8975L271.492 89.9287Z" fill="#3F5D7D" stroke="#3F5D7D"/>
<circle cx="270.43" cy="97.2383" r="1.56836" fill="#3E515A"/>
<circle cx="265.202" cy="97.2383" r="1.56836" fill="#3E515A"/>
<circle cx="259.974" cy="97.2383" r="1.56836" fill="#3E515A"/>
<circle cx="254.746" cy="97.2383" r="1.56836" fill="#3E515A"/>
<g filter="url(#filter3_d_414_463)">
<path d="M128.233 113.967L280.887 114.189L280.386 138.015L128.628 137.553L128.233 113.967Z" fill="url(#paint6_linear_414_463)"/>
<path d="M280.377 114.688L279.896 137.513L129.119 137.054L128.741 114.467L280.377 114.688Z" stroke="#252728"/>
</g>
<path d="M276.189 118.797L275.746 133.853L133.277 133.544L132.928 118.648L276.189 118.797Z" stroke="#3F5D7D"/>
<path d="M149.16 122.341L149.13 124.965L137.127 124.899L137.102 122.31L149.16 122.341Z" fill="#3F5D7D" stroke="#3F5D7D"/>
<path d="M166.936 122.341L166.905 124.965L154.902 124.899L154.877 122.31L166.936 122.341Z" fill="#3F5D7D" stroke="#3F5D7D"/>
<path d="M271.492 122.341L271.462 124.965L259.459 124.899L259.434 122.31L271.492 122.341Z" fill="#3F5D7D" stroke="#3F5D7D"/>
<circle cx="270.43" cy="129.65" r="1.56836" fill="#3E515A"/>
<circle cx="265.202" cy="129.65" r="1.56836" fill="#3E515A"/>
<circle cx="259.974" cy="129.65" r="1.56836" fill="#3E515A"/>
<circle cx="254.746" cy="129.65" r="1.56836" fill="#3E515A"/>
<g filter="url(#filter4_d_414_463)">
<path d="M128.233 146.381L280.887 146.603L280.386 170.429L128.628 169.967L128.233 146.381Z" fill="url(#paint7_linear_414_463)"/>
<path d="M280.377 147.103L279.896 169.927L129.119 169.468L128.741 146.881L280.377 147.103Z" stroke="#252728"/>
</g>
<path d="M276.189 151.211L275.746 166.267L133.277 165.958L132.928 151.062L276.189 151.211Z" stroke="#3F5D7D"/>
<path d="M149.16 154.757L149.13 157.381L137.127 157.315L137.102 154.726L149.16 154.757Z" fill="#3F5D7D" stroke="#3F5D7D"/>
<path d="M166.936 154.757L166.905 157.381L154.902 157.315L154.877 154.726L166.936 154.757Z" fill="#3F5D7D" stroke="#3F5D7D"/>
<path d="M271.492 154.757L271.462 157.381L259.459 157.315L259.434 154.726L271.492 154.757Z" fill="#3F5D7D" stroke="#3F5D7D"/>
<circle cx="270.43" cy="162.064" r="1.56836" fill="#3E515A"/>
<circle cx="265.202" cy="162.064" r="1.56836" fill="#3E515A"/>
<circle cx="259.974" cy="162.064" r="1.56836" fill="#3E515A"/>
<circle cx="254.746" cy="162.064" r="1.56836" fill="#3E515A"/>
<g filter="url(#filter5_d_414_463)">
<path d="M128.233 178.793L280.887 179.015L280.386 202.841L128.628 202.379L128.233 178.793Z" fill="url(#paint8_linear_414_463)"/>
<path d="M280.377 179.515L279.896 202.339L129.119 201.88L128.741 179.293L280.377 179.515Z" stroke="#252728"/>
</g>
<path d="M276.189 183.623L275.746 198.679L133.277 198.37L132.928 183.475L276.189 183.623Z" stroke="#3F5D7D"/>
<path d="M149.16 187.167L149.13 189.791L137.127 189.726L137.102 187.136L149.16 187.167Z" fill="#3F5D7D" stroke="#3F5D7D"/>
<path d="M166.936 187.167L166.905 189.791L154.902 189.726L154.877 187.136L166.936 187.167Z" fill="#3F5D7D" stroke="#3F5D7D"/>
<path d="M271.492 187.167L271.462 189.791L259.459 189.726L259.434 187.136L271.492 187.167Z" fill="#3F5D7D" stroke="#3F5D7D"/>
<circle cx="270.43" cy="194.477" r="1.56836" fill="#3E515A"/>
<circle cx="265.202" cy="194.477" r="1.56836" fill="#3E515A"/>
<circle cx="259.974" cy="194.477" r="1.56836" fill="#3E515A"/>
<circle cx="254.746" cy="194.477" r="1.56836" fill="#3E515A"/>
<g filter="url(#filter6_d_414_463)">
<path d="M127.187 211.205L279.84 211.427L279.339 235.253L127.581 234.791L127.187 211.205Z" fill="url(#paint9_linear_414_463)"/>
<path d="M279.33 211.927L278.85 234.751L128.072 234.292L127.694 211.705L279.33 211.927Z" stroke="#252728"/>
</g>
<path d="M275.144 216.035L274.7 231.091L132.231 230.782L131.882 215.887L275.144 216.035Z" stroke="#3F5D7D"/>
<path d="M148.113 219.579L148.083 222.203L136.08 222.138L136.055 219.548L148.113 219.579Z" fill="#3F5D7D" stroke="#3F5D7D"/>
<path d="M165.889 219.579L165.858 222.203L153.855 222.138L153.83 219.548L165.889 219.579Z" fill="#3F5D7D" stroke="#3F5D7D"/>
<path d="M270.445 219.579L270.415 222.203L258.412 222.138L258.387 219.548L270.445 219.579Z" fill="#3F5D7D" stroke="#3F5D7D"/>
<circle cx="269.386" cy="226.889" r="1.56836" fill="#3E515A"/>
<circle cx="264.157" cy="226.889" r="1.56836" fill="#3E515A"/>
<circle cx="258.929" cy="226.889" r="1.56836" fill="#3E515A"/>
<circle cx="253.701" cy="226.889" r="1.56836" fill="#3E515A"/>
<g filter="url(#filter7_i_414_463)">
<rect x="135.55" y="245.709" width="10.4557" height="25.6166" fill="#3D4246"/>
</g>
<g filter="url(#filter8_i_414_463)">
<rect x="156.462" y="245.709" width="10.4557" height="25.6166" fill="#3D4246"/>
</g>
<g filter="url(#filter9_i_414_463)">
<rect x="177.374" y="245.709" width="9.93295" height="25.6166" fill="#3D4246"/>
</g>
<g filter="url(#filter10_i_414_463)">
<rect x="198.285" y="245.709" width="9.93295" height="25.6166" fill="#3D4246"/>
</g>
<g filter="url(#filter11_i_414_463)">
<rect x="219.197" y="245.709" width="9.93295" height="25.6166" fill="#3D4246"/>
</g>
<g filter="url(#filter12_i_414_463)">
<rect x="239.586" y="245.709" width="10.4557" height="25.6166" fill="#3D4246"/>
</g>
<g filter="url(#filter13_i_414_463)">
<rect x="260.497" y="245.709" width="10.4557" height="25.6166" fill="#3D4246"/>
</g>
<defs>
<filter id="filter0_df_414_463" x="103.68" y="89.25" width="305.073" height="276.84" filterUnits="userSpaceOnUse" color-interpolation-filters="sRGB">
<feFlood flood-opacity="0" result="BackgroundImageFix"/>
<feColorMatrix in="SourceAlpha" type="matrix" values="0 0 0 0 0 0 0 0 0 0 0 0 0 0 0 0 0 0 127 0" result="hardAlpha"/>
<feOffset/>
<feGaussianBlur stdDeviation="25"/>
<feComposite in2="hardAlpha" operator="out"/>
<feColorMatrix type="matrix" values="0 0 0 0 0.0431373 0 0 0 0 0.717647 0 0 0 0 0.717647 0 0 0 1 0"/>
<feBlend mode="normal" in2="BackgroundImageFix" result="effect1_dropShadow_414_463"/>
<feBlend mode="normal" in="SourceGraphic" in2="effect1_dropShadow_414_463" result="shape"/>
<feGaussianBlur stdDeviation="50" result="effect2_foregroundBlur_414_463"/>
</filter>
<filter id="filter1_df_414_463" x="0" y="89.25" width="303.682" height="276.84" filterUnits="userSpaceOnUse" color-interpolation-filters="sRGB">
<feFlood flood-opacity="0" result="BackgroundImageFix"/>
<feColorMatrix in="SourceAlpha" type="matrix" values="0 0 0 0 0 0 0 0 0 0 0 0 0 0 0 0 0 0 127 0" result="hardAlpha"/>
<feOffset/>
<feGaussianBlur stdDeviation="25"/>
<feComposite in2="hardAlpha" operator="out"/>
<feColorMatrix type="matrix" values="0 0 0 0 0.3625 0 0 0 0 0.541 0 0 0 0 1 0 0 0 1 0"/>
<feBlend mode="normal" in2="BackgroundImageFix" result="effect1_dropShadow_414_463"/>
<feBlend mode="normal" in="SourceGraphic" in2="effect1_dropShadow_414_463" result="shape"/>
<feGaussianBlur stdDeviation="50" result="effect2_foregroundBlur_414_463"/>
</filter>
<filter id="filter2_d_414_463" x="124.233" y="81.5547" width="160.653" height="32.0488" filterUnits="userSpaceOnUse" color-interpolation-filters="sRGB">
<feFlood flood-opacity="0" result="BackgroundImageFix"/>
<feColorMatrix in="SourceAlpha" type="matrix" values="0 0 0 0 0 0 0 0 0 0 0 0 0 0 0 0 0 0 127 0" result="hardAlpha"/>
<feOffset dy="4"/>
<feGaussianBlur stdDeviation="2"/>
<feComposite in2="hardAlpha" operator="out"/>
<feColorMatrix type="matrix" values="0 0 0 0 0 0 0 0 0 0 0 0 0 0 0 0 0 0 0.25 0"/>
<feBlend mode="normal" in2="BackgroundImageFix" result="effect1_dropShadow_414_463"/>
<feBlend mode="normal" in="SourceGraphic" in2="effect1_dropShadow_414_463" result="shape"/>
</filter>
<filter id="filter3_d_414_463" x="124.233" y="113.967" width="160.653" height="32.0488" filterUnits="userSpaceOnUse" color-interpolation-filters="sRGB">
<feFlood flood-opacity="0" result="BackgroundImageFix"/>
<feColorMatrix in="SourceAlpha" type="matrix" values="0 0 0 0 0 0 0 0 0 0 0 0 0 0 0 0 0 0 127 0" result="hardAlpha"/>
<feOffset dy="4"/>
<feGaussianBlur stdDeviation="2"/>
<feComposite in2="hardAlpha" operator="out"/>
<feColorMatrix type="matrix" values="0 0 0 0 0 0 0 0 0 0 0 0 0 0 0 0 0 0 0.25 0"/>
<feBlend mode="normal" in2="BackgroundImageFix" result="effect1_dropShadow_414_463"/>
<feBlend mode="normal" in="SourceGraphic" in2="effect1_dropShadow_414_463" result="shape"/>
</filter>
<filter id="filter4_d_414_463" x="124.233" y="146.381" width="160.653" height="32.0488" filterUnits="userSpaceOnUse" color-interpolation-filters="sRGB">
<feFlood flood-opacity="0" result="BackgroundImageFix"/>
<feColorMatrix in="SourceAlpha" type="matrix" values="0 0 0 0 0 0 0 0 0 0 0 0 0 0 0 0 0 0 127 0" result="hardAlpha"/>
<feOffset dy="4"/>
<feGaussianBlur stdDeviation="2"/>
<feComposite in2="hardAlpha" operator="out"/>
<feColorMatrix type="matrix" values="0 0 0 0 0 0 0 0 0 0 0 0 0 0 0 0 0 0 0.25 0"/>
<feBlend mode="normal" in2="BackgroundImageFix" result="effect1_dropShadow_414_463"/>
<feBlend mode="normal" in="SourceGraphic" in2="effect1_dropShadow_414_463" result="shape"/>
</filter>
<filter id="filter5_d_414_463" x="124.233" y="178.793" width="160.653" height="32.0488" filterUnits="userSpaceOnUse" color-interpolation-filters="sRGB">
<feFlood flood-opacity="0" result="BackgroundImageFix"/>
<feColorMatrix in="SourceAlpha" type="matrix" values="0 0 0 0 0 0 0 0 0 0 0 0 0 0 0 0 0 0 127 0" result="hardAlpha"/>
<feOffset dy="4"/>
<feGaussianBlur stdDeviation="2"/>
<feComposite in2="hardAlpha" operator="out"/>
<feColorMatrix type="matrix" values="0 0 0 0 0 0 0 0 0 0 0 0 0 0 0 0 0 0 0.25 0"/>
<feBlend mode="normal" in2="BackgroundImageFix" result="effect1_dropShadow_414_463"/>
<feBlend mode="normal" in="SourceGraphic" in2="effect1_dropShadow_414_463" result="shape"/>
</filter>
<filter id="filter6_d_414_463" x="123.187" y="211.205" width="160.653" height="32.0488" filterUnits="userSpaceOnUse" color-interpolation-filters="sRGB">
<feFlood flood-opacity="0" result="BackgroundImageFix"/>
<feColorMatrix in="SourceAlpha" type="matrix" values="0 0 0 0 0 0 0 0 0 0 0 0 0 0 0 0 0 0 127 0" result="hardAlpha"/>
<feOffset dy="4"/>
<feGaussianBlur stdDeviation="2"/>
<feComposite in2="hardAlpha" operator="out"/>
<feColorMatrix type="matrix" values="0 0 0 0 0 0 0 0 0 0 0 0 0 0 0 0 0 0 0.25 0"/>
<feBlend mode="normal" in2="BackgroundImageFix" result="effect1_dropShadow_414_463"/>
<feBlend mode="normal" in="SourceGraphic" in2="effect1_dropShadow_414_463" result="shape"/>
</filter>
<filter id="filter7_i_414_463" x="135.55" y="245.709" width="12.4561" height="27.6172" filterUnits="userSpaceOnUse" color-interpolation-filters="sRGB">
<feFlood flood-opacity="0" result="BackgroundImageFix"/>
<feBlend mode="normal" in="SourceGraphic" in2="BackgroundImageFix" result="shape"/>
<feColorMatrix in="SourceAlpha" type="matrix" values="0 0 0 0 0 0 0 0 0 0 0 0 0 0 0 0 0 0 127 0" result="hardAlpha"/>
<feOffset dx="2" dy="2"/>
<feGaussianBlur stdDeviation="2"/>
<feComposite in2="hardAlpha" operator="arithmetic" k2="-1" k3="1"/>
<feColorMatrix type="matrix" values="0 0 0 0 0 0 0 0 0 0 0 0 0 0 0 0 0 0 0.25 0"/>
<feBlend mode="normal" in2="shape" result="effect1_innerShadow_414_463"/>
</filter>
<filter id="filter8_i_414_463" x="156.462" y="245.709" width="12.4561" height="27.6172" filterUnits="userSpaceOnUse" color-interpolation-filters="sRGB">
<feFlood flood-opacity="0" result="BackgroundImageFix"/>
<feBlend mode="normal" in="SourceGraphic" in2="BackgroundImageFix" result="shape"/>
<feColorMatrix in="SourceAlpha" type="matrix" values="0 0 0 0 0 0 0 0 0 0 0 0 0 0 0 0 0 0 127 0" result="hardAlpha"/>
<feOffset dx="2" dy="2"/>
<feGaussianBlur stdDeviation="2"/>
<feComposite in2="hardAlpha" operator="arithmetic" k2="-1" k3="1"/>
<feColorMatrix type="matrix" values="0 0 0 0 0 0 0 0 0 0 0 0 0 0 0 0 0 0 0.25 0"/>
<feBlend mode="normal" in2="shape" result="effect1_innerShadow_414_463"/>
</filter>
<filter id="filter9_i_414_463" x="177.374" y="245.709" width="11.9326" height="27.6172" filterUnits="userSpaceOnUse" color-interpolation-filters="sRGB">
<feFlood flood-opacity="0" result="BackgroundImageFix"/>
<feBlend mode="normal" in="SourceGraphic" in2="BackgroundImageFix" result="shape"/>
<feColorMatrix in="SourceAlpha" type="matrix" values="0 0 0 0 0 0 0 0 0 0 0 0 0 0 0 0 0 0 127 0" result="hardAlpha"/>
<feOffset dx="2" dy="2"/>
<feGaussianBlur stdDeviation="2"/>
<feComposite in2="hardAlpha" operator="arithmetic" k2="-1" k3="1"/>
<feColorMatrix type="matrix" values="0 0 0 0 0 0 0 0 0 0 0 0 0 0 0 0 0 0 0.25 0"/>
<feBlend mode="normal" in2="shape" result="effect1_innerShadow_414_463"/>
</filter>
<filter id="filter10_i_414_463" x="198.285" y="245.709" width="11.9326" height="27.6172" filterUnits="userSpaceOnUse" color-interpolation-filters="sRGB">
<feFlood flood-opacity="0" result="BackgroundImageFix"/>
<feBlend mode="normal" in="SourceGraphic" in2="BackgroundImageFix" result="shape"/>
<feColorMatrix in="SourceAlpha" type="matrix" values="0 0 0 0 0 0 0 0 0 0 0 0 0 0 0 0 0 0 127 0" result="hardAlpha"/>
<feOffset dx="2" dy="2"/>
<feGaussianBlur stdDeviation="2"/>
<feComposite in2="hardAlpha" operator="arithmetic" k2="-1" k3="1"/>
<feColorMatrix type="matrix" values="0 0 0 0 0 0 0 0 0 0 0 0 0 0 0 0 0 0 0.25 0"/>
<feBlend mode="normal" in2="shape" result="effect1_innerShadow_414_463"/>
</filter>
<filter id="filter11_i_414_463" x="219.197" y="245.709" width="11.9326" height="27.6172" filterUnits="userSpaceOnUse" color-interpolation-filters="sRGB">
<feFlood flood-opacity="0" result="BackgroundImageFix"/>
<feBlend mode="normal" in="SourceGraphic" in2="BackgroundImageFix" result="shape"/>
<feColorMatrix in="SourceAlpha" type="matrix" values="0 0 0 0 0 0 0 0 0 0 0 0 0 0 0 0 0 0 127 0" result="hardAlpha"/>
<feOffset dx="2" dy="2"/>
<feGaussianBlur stdDeviation="2"/>
<feComposite in2="hardAlpha" operator="arithmetic" k2="-1" k3="1"/>
<feColorMatrix type="matrix" values="0 0 0 0 0 0 0 0 0 0 0 0 0 0 0 0 0 0 0.25 0"/>
<feBlend mode="normal" in2="shape" result="effect1_innerShadow_414_463"/>
</filter>
<filter id="filter12_i_414_463" x="239.586" y="245.709" width="12.4561" height="27.6172" filterUnits="userSpaceOnUse" color-interpolation-filters="sRGB">
<feFlood flood-opacity="0" result="BackgroundImageFix"/>
<feBlend mode="normal" in="SourceGraphic" in2="BackgroundImageFix" result="shape"/>
<feColorMatrix in="SourceAlpha" type="matrix" values="0 0 0 0 0 0 0 0 0 0 0 0 0 0 0 0 0 0 127 0" result="hardAlpha"/>
<feOffset dx="2" dy="2"/>
<feGaussianBlur stdDeviation="2"/>
<feComposite in2="hardAlpha" operator="arithmetic" k2="-1" k3="1"/>
<feColorMatrix type="matrix" values="0 0 0 0 0 0 0 0 0 0 0 0 0 0 0 0 0 0 0.25 0"/>
<feBlend mode="normal" in2="shape" result="effect1_innerShadow_414_463"/>
</filter>
<filter id="filter13_i_414_463" x="260.497" y="245.709" width="12.4561" height="27.6172" filterUnits="userSpaceOnUse" color-interpolation-filters="sRGB">
<feFlood flood-opacity="0" result="BackgroundImageFix"/>
<feBlend mode="normal" in="SourceGraphic" in2="BackgroundImageFix" result="shape"/>
<feColorMatrix in="SourceAlpha" type="matrix" values="0 0 0 0 0 0 0 0 0 0 0 0 0 0 0 0 0 0 127 0" result="hardAlpha"/>
<feOffset dx="2" dy="2"/>
<feGaussianBlur stdDeviation="2"/>
<feComposite in2="hardAlpha" operator="arithmetic" k2="-1" k3="1"/>
<feColorMatrix type="matrix" values="0 0 0 0 0 0 0 0 0 0 0 0 0 0 0 0 0 0 0.25 0"/>
<feBlend mode="normal" in2="shape" result="effect1_innerShadow_414_463"/>
</filter>
<radialGradient id="paint0_radial_414_463" cx="0" cy="0" r="1" gradientUnits="userSpaceOnUse" gradientTransform="translate(78.3357 36.6093) rotate(90) scale(36.6093 78.3357)">
<stop offset="0.296875" stop-color="#4AE5B6" stop-opacity="0.5"/>
<stop offset="1" stop-color="#4AE5B6" stop-opacity="0"/>
</radialGradient>
<linearGradient id="paint1_linear_414_463" x1="256.216" y1="189.251" x2="256.216" y2="266.089" gradientUnits="userSpaceOnUse">
<stop stop-color="#1D1F24"/>
<stop offset="1" stop-color="#323840"/>
</linearGradient>
<linearGradient id="paint2_linear_414_463" x1="151.841" y1="189.251" x2="151.841" y2="266.089" gradientUnits="userSpaceOnUse">
<stop stop-color="#1D1F24"/>
<stop offset="1" stop-color="#323840"/>
</linearGradient>
<linearGradient id="paint3_linear_414_463" x1="203.349" y1="-0.0184737" x2="203.349" y2="72.9585" gradientUnits="userSpaceOnUse">
<stop stop-color="#1D1F24"/>
<stop offset="1" stop-color="#323840"/>
</linearGradient>
<linearGradient id="paint4_linear_414_463" x1="203.243" y1="73.1362" x2="203.243" y2="283.468" gradientUnits="userSpaceOnUse">
<stop stop-color="#31373F"/>
<stop offset="1" stop-color="#323840"/>
</linearGradient>
<linearGradient id="paint5_linear_414_463" x1="128.45" y1="93.5788" x2="280.661" y2="93.5788" gradientUnits="userSpaceOnUse">
<stop stop-color="#1F2226"/>
<stop offset="0.49" stop-color="#0F1013"/>
<stop offset="1" stop-color="#1F2226"/>
</linearGradient>
<linearGradient id="paint6_linear_414_463" x1="128.45" y1="125.991" x2="280.661" y2="125.991" gradientUnits="userSpaceOnUse">
<stop stop-color="#1F2226"/>
<stop offset="0.49" stop-color="#0F1013"/>
<stop offset="1" stop-color="#1F2226"/>
</linearGradient>
<linearGradient id="paint7_linear_414_463" x1="128.45" y1="158.405" x2="280.661" y2="158.405" gradientUnits="userSpaceOnUse">
<stop stop-color="#1F2226"/>
<stop offset="0.49" stop-color="#0F1013"/>
<stop offset="1" stop-color="#1F2226"/>
</linearGradient>
<linearGradient id="paint8_linear_414_463" x1="128.45" y1="190.817" x2="280.661" y2="190.817" gradientUnits="userSpaceOnUse">
<stop stop-color="#1F2226"/>
<stop offset="0.49" stop-color="#0F1013"/>
<stop offset="1" stop-color="#1F2226"/>
</linearGradient>
<linearGradient id="paint9_linear_414_463" x1="127.403" y1="223.229" x2="279.614" y2="223.229" gradientUnits="userSpaceOnUse">
<stop stop-color="#1F2226"/>
<stop offset="0.49" stop-color="#0F1013"/>
<stop offset="1" stop-color="#1F2226"/>
</linearGradient>
</defs>
</svg>
