<svg width="169" height="305" viewBox="0 0 169 305" fill="none" xmlns="http://www.w3.org/2000/svg">
<path d="M16.7041 247.57L8.90332 290.787H160.249L151.967 247.57H16.7041Z" stroke="#4AE5B6" stroke-opacity="0.5"/>
<ellipse cx="78.3357" cy="36.6093" rx="78.3357" ry="36.6093" transform="matrix(-1 0 0 1 162.765 231.595)" fill="url(#paint0_radial_415_552)"/>
<path d="M0.34668 72.9578L2 64.0312L11.5 72.9578H0.34668Z" fill="#252728"/>
<path d="M168.372 72.9578L166.5 62.0312L156 72.9578H168.372Z" fill="#252728"/>
<path d="M19.999 0.5H148.718C153.415 0.5 157.407 3.93302 158.11 8.57715L166.135 61.5352C167.006 67.2832 162.556 72.4579 156.742 72.458H11.9746C6.16113 72.4578 1.71113 67.2831 2.58203 61.5352L10.6064 8.57715C11.3101 3.93302 15.3019 0.5 19.999 0.5Z" fill="url(#paint1_linear_415_552)" stroke="#252728"/>
<path d="M142.437 18.6311C141.784 13.6541 137.542 9.93262 132.522 9.93262H37.7353C32.6869 9.93262 28.4303 13.6955 27.8109 18.7057L23.6912 52.03C22.9539 57.9941 27.6061 63.2569 33.6156 63.2569H136.897C142.936 63.2569 147.598 57.9438 146.811 51.9554L142.437 18.6311Z" fill="#111112"/>
<path d="M167.655 73.6904L165.574 282.328H3.19238L0.851562 73.6904H167.655Z" fill="url(#paint2_linear_415_552)" stroke="#252728"/>
<g filter="url(#filter0_d_415_552)">
<path d="M9.2334 81.5557L161.887 81.7781L161.386 105.604L9.62814 105.142L9.2334 81.5557Z" fill="url(#paint3_linear_415_552)"/>
<path d="M161.377 82.2773L160.896 105.102L10.1191 104.643L9.74121 82.0557L161.377 82.2773Z" stroke="#252728"/>
</g>
<path d="M157.189 86.3857L156.746 101.441L14.2773 101.133L13.9277 86.2373L157.189 86.3857Z" stroke="#3F5D7D"/>
<path d="M30.1602 89.9297L30.1299 92.5537L18.127 92.4883L18.1016 89.8984L30.1602 89.9297Z" fill="#3F5D7D" stroke="#3F5D7D"/>
<path d="M47.9355 89.9297L47.9053 92.5537L35.9023 92.4883L35.877 89.8984L47.9355 89.9297Z" fill="#3F5D7D" stroke="#3F5D7D"/>
<path d="M152.492 89.9297L152.462 92.5537L140.459 92.4883L140.434 89.8984L152.492 89.9297Z" fill="#3F5D7D" stroke="#3F5D7D"/>
<circle cx="151.43" cy="97.2383" r="1.56836" fill="#3E515A"/>
<circle cx="146.202" cy="97.2383" r="1.56836" fill="#3E515A"/>
<circle cx="140.974" cy="97.2383" r="1.56836" fill="#3E515A"/>
<circle cx="135.746" cy="97.2383" r="1.56836" fill="#3E515A"/>
<g filter="url(#filter1_d_415_552)">
<path d="M9.2334 113.967L161.887 114.189L161.386 138.015L9.62814 137.553L9.2334 113.967Z" fill="url(#paint4_linear_415_552)"/>
<path d="M161.377 114.688L160.896 137.513L10.1191 137.054L9.74121 114.467L161.377 114.688Z" stroke="#252728"/>
</g>
<path d="M157.189 118.797L156.746 133.853L14.2773 133.544L13.9277 118.648L157.189 118.797Z" stroke="#3F5D7D"/>
<path d="M30.1602 122.342L30.1299 124.966L18.127 124.9L18.1016 122.311L30.1602 122.342Z" fill="#3F5D7D" stroke="#3F5D7D"/>
<path d="M47.9355 122.342L47.9053 124.966L35.9023 124.9L35.877 122.311L47.9355 122.342Z" fill="#3F5D7D" stroke="#3F5D7D"/>
<path d="M152.492 122.342L152.462 124.966L140.459 124.9L140.434 122.311L152.492 122.342Z" fill="#3F5D7D" stroke="#3F5D7D"/>
<circle cx="151.43" cy="129.651" r="1.56836" fill="#3E515A"/>
<circle cx="146.202" cy="129.651" r="1.56836" fill="#3E515A"/>
<circle cx="140.974" cy="129.651" r="1.56836" fill="#3E515A"/>
<circle cx="135.746" cy="129.651" r="1.56836" fill="#3E515A"/>
<g filter="url(#filter2_d_415_552)">
<path d="M9.2334 146.38L161.887 146.602L161.386 170.428L9.62814 169.966L9.2334 146.38Z" fill="url(#paint5_linear_415_552)"/>
<path d="M161.377 147.102L160.896 169.926L10.1191 169.467L9.74121 146.88L161.377 147.102Z" stroke="#252728"/>
</g>
<path d="M157.189 151.211L156.746 166.267L14.2773 165.958L13.9277 151.062L157.189 151.211Z" stroke="#3F5D7D"/>
<path d="M30.1602 154.755L30.1299 157.379L18.127 157.313L18.1016 154.724L30.1602 154.755Z" fill="#3F5D7D" stroke="#3F5D7D"/>
<path d="M47.9355 154.755L47.9053 157.379L35.9023 157.313L35.877 154.724L47.9355 154.755Z" fill="#3F5D7D" stroke="#3F5D7D"/>
<path d="M152.492 154.755L152.462 157.379L140.459 157.313L140.434 154.724L152.492 154.755Z" fill="#3F5D7D" stroke="#3F5D7D"/>
<circle cx="151.43" cy="162.063" r="1.56836" fill="#3E515A"/>
<circle cx="146.202" cy="162.063" r="1.56836" fill="#3E515A"/>
<circle cx="140.974" cy="162.063" r="1.56836" fill="#3E515A"/>
<circle cx="135.746" cy="162.063" r="1.56836" fill="#3E515A"/>
<g filter="url(#filter3_d_415_552)">
<path d="M9.2334 178.794L161.887 179.016L161.386 202.842L9.62814 202.38L9.2334 178.794Z" fill="url(#paint6_linear_415_552)"/>
<path d="M161.377 179.516L160.896 202.34L10.1191 201.881L9.74121 179.294L161.377 179.516Z" stroke="#252728"/>
</g>
<path d="M157.189 183.624L156.746 198.68L14.2773 198.371L13.9277 183.476L157.189 183.624Z" stroke="#3F5D7D"/>
<path d="M30.1602 187.168L30.1299 189.792L18.127 189.727L18.1016 187.137L30.1602 187.168Z" fill="#3F5D7D" stroke="#3F5D7D"/>
<path d="M47.9355 187.168L47.9053 189.792L35.9023 189.727L35.877 187.137L47.9355 187.168Z" fill="#3F5D7D" stroke="#3F5D7D"/>
<path d="M152.492 187.168L152.462 189.792L140.459 189.727L140.434 187.137L152.492 187.168Z" fill="#3F5D7D" stroke="#3F5D7D"/>
<circle cx="151.43" cy="194.477" r="1.56836" fill="#3E515A"/>
<circle cx="146.202" cy="194.477" r="1.56836" fill="#3E515A"/>
<circle cx="140.974" cy="194.477" r="1.56836" fill="#3E515A"/>
<circle cx="135.746" cy="194.477" r="1.56836" fill="#3E515A"/>
<g filter="url(#filter4_d_415_552)">
<path d="M8.18652 211.205L160.84 211.427L160.339 235.253L8.58127 234.791L8.18652 211.205Z" fill="url(#paint7_linear_415_552)"/>
<path d="M160.33 211.927L159.85 234.751L9.07227 234.292L8.69434 211.705L160.33 211.927Z" stroke="#252728"/>
</g>
<path d="M156.144 216.035L155.7 231.091L13.2314 230.782L12.8818 215.887L156.144 216.035Z" stroke="#3F5D7D"/>
<path d="M29.1133 219.579L29.083 222.203L17.0801 222.138L17.0547 219.548L29.1133 219.579Z" fill="#3F5D7D" stroke="#3F5D7D"/>
<path d="M46.8887 219.579L46.8584 222.203L34.8555 222.138L34.8301 219.548L46.8887 219.579Z" fill="#3F5D7D" stroke="#3F5D7D"/>
<path d="M151.445 219.579L151.415 222.203L139.412 222.138L139.387 219.548L151.445 219.579Z" fill="#3F5D7D" stroke="#3F5D7D"/>
<circle cx="150.386" cy="226.89" r="1.56836" fill="#3E515A"/>
<circle cx="145.157" cy="226.89" r="1.56836" fill="#3E515A"/>
<circle cx="139.929" cy="226.89" r="1.56836" fill="#3E515A"/>
<circle cx="134.701" cy="226.89" r="1.56836" fill="#3E515A"/>
<g filter="url(#filter5_i_415_552)">
<path d="M16.5498 245.709H27.0055V271.326H16.5498V245.709Z" fill="#3D4246"/>
<path d="M37.4615 245.709H47.9173V271.326H37.4615V245.709Z" fill="#3D4246"/>
<path d="M58.3733 245.709H68.3062V271.326H58.3733V245.709Z" fill="#3D4246"/>
<path d="M79.285 245.709H89.2179V271.326H79.285V245.709Z" fill="#3D4246"/>
<path d="M100.197 245.709H110.13V271.326H100.197V245.709Z" fill="#3D4246"/>
<path d="M120.586 245.709H131.041V271.326H120.586V245.709Z" fill="#3D4246"/>
<path d="M141.497 245.709H151.952V271.326H141.497V245.709Z" fill="#3D4246"/>
</g>
<defs>
<filter id="filter0_d_415_552" x="5.2334" y="81.5557" width="160.653" height="32.0479" filterUnits="userSpaceOnUse" color-interpolation-filters="sRGB">
<feFlood flood-opacity="0" result="BackgroundImageFix"/>
<feColorMatrix in="SourceAlpha" type="matrix" values="0 0 0 0 0 0 0 0 0 0 0 0 0 0 0 0 0 0 127 0" result="hardAlpha"/>
<feOffset dy="4"/>
<feGaussianBlur stdDeviation="2"/>
<feComposite in2="hardAlpha" operator="out"/>
<feColorMatrix type="matrix" values="0 0 0 0 0 0 0 0 0 0 0 0 0 0 0 0 0 0 0.25 0"/>
<feBlend mode="normal" in2="BackgroundImageFix" result="effect1_dropShadow_415_552"/>
<feBlend mode="normal" in="SourceGraphic" in2="effect1_dropShadow_415_552" result="shape"/>
</filter>
<filter id="filter1_d_415_552" x="5.2334" y="113.967" width="160.653" height="32.0479" filterUnits="userSpaceOnUse" color-interpolation-filters="sRGB">
<feFlood flood-opacity="0" result="BackgroundImageFix"/>
<feColorMatrix in="SourceAlpha" type="matrix" values="0 0 0 0 0 0 0 0 0 0 0 0 0 0 0 0 0 0 127 0" result="hardAlpha"/>
<feOffset dy="4"/>
<feGaussianBlur stdDeviation="2"/>
<feComposite in2="hardAlpha" operator="out"/>
<feColorMatrix type="matrix" values="0 0 0 0 0 0 0 0 0 0 0 0 0 0 0 0 0 0 0.25 0"/>
<feBlend mode="normal" in2="BackgroundImageFix" result="effect1_dropShadow_415_552"/>
<feBlend mode="normal" in="SourceGraphic" in2="effect1_dropShadow_415_552" result="shape"/>
</filter>
<filter id="filter2_d_415_552" x="5.2334" y="146.38" width="160.653" height="32.0479" filterUnits="userSpaceOnUse" color-interpolation-filters="sRGB">
<feFlood flood-opacity="0" result="BackgroundImageFix"/>
<feColorMatrix in="SourceAlpha" type="matrix" values="0 0 0 0 0 0 0 0 0 0 0 0 0 0 0 0 0 0 127 0" result="hardAlpha"/>
<feOffset dy="4"/>
<feGaussianBlur stdDeviation="2"/>
<feComposite in2="hardAlpha" operator="out"/>
<feColorMatrix type="matrix" values="0 0 0 0 0 0 0 0 0 0 0 0 0 0 0 0 0 0 0.25 0"/>
<feBlend mode="normal" in2="BackgroundImageFix" result="effect1_dropShadow_415_552"/>
<feBlend mode="normal" in="SourceGraphic" in2="effect1_dropShadow_415_552" result="shape"/>
</filter>
<filter id="filter3_d_415_552" x="5.2334" y="178.794" width="160.653" height="32.0479" filterUnits="userSpaceOnUse" color-interpolation-filters="sRGB">
<feFlood flood-opacity="0" result="BackgroundImageFix"/>
<feColorMatrix in="SourceAlpha" type="matrix" values="0 0 0 0 0 0 0 0 0 0 0 0 0 0 0 0 0 0 127 0" result="hardAlpha"/>
<feOffset dy="4"/>
<feGaussianBlur stdDeviation="2"/>
<feComposite in2="hardAlpha" operator="out"/>
<feColorMatrix type="matrix" values="0 0 0 0 0 0 0 0 0 0 0 0 0 0 0 0 0 0 0.25 0"/>
<feBlend mode="normal" in2="BackgroundImageFix" result="effect1_dropShadow_415_552"/>
<feBlend mode="normal" in="SourceGraphic" in2="effect1_dropShadow_415_552" result="shape"/>
</filter>
<filter id="filter4_d_415_552" x="4.18652" y="211.205" width="160.653" height="32.0479" filterUnits="userSpaceOnUse" color-interpolation-filters="sRGB">
<feFlood flood-opacity="0" result="BackgroundImageFix"/>
<feColorMatrix in="SourceAlpha" type="matrix" values="0 0 0 0 0 0 0 0 0 0 0 0 0 0 0 0 0 0 127 0" result="hardAlpha"/>
<feOffset dy="4"/>
<feGaussianBlur stdDeviation="2"/>
<feComposite in2="hardAlpha" operator="out"/>
<feColorMatrix type="matrix" values="0 0 0 0 0 0 0 0 0 0 0 0 0 0 0 0 0 0 0.25 0"/>
<feBlend mode="normal" in2="BackgroundImageFix" result="effect1_dropShadow_415_552"/>
<feBlend mode="normal" in="SourceGraphic" in2="effect1_dropShadow_415_552" result="shape"/>
</filter>
<filter id="filter5_i_415_552" x="16.5498" y="245.709" width="137.402" height="27.6162" filterUnits="userSpaceOnUse" color-interpolation-filters="sRGB">
<feFlood flood-opacity="0" result="BackgroundImageFix"/>
<feBlend mode="normal" in="SourceGraphic" in2="BackgroundImageFix" result="shape"/>
<feColorMatrix in="SourceAlpha" type="matrix" values="0 0 0 0 0 0 0 0 0 0 0 0 0 0 0 0 0 0 127 0" result="hardAlpha"/>
<feOffset dx="2" dy="2"/>
<feGaussianBlur stdDeviation="2"/>
<feComposite in2="hardAlpha" operator="arithmetic" k2="-1" k3="1"/>
<feColorMatrix type="matrix" values="0 0 0 0 0 0 0 0 0 0 0 0 0 0 0 0 0 0 0.25 0"/>
<feBlend mode="normal" in2="shape" result="effect1_innerShadow_415_552"/>
</filter>
<radialGradient id="paint0_radial_415_552" cx="0" cy="0" r="1" gradientUnits="userSpaceOnUse" gradientTransform="translate(78.3357 36.6093) rotate(90) scale(36.6093 78.3357)">
<stop offset="0.296875" stop-color="#4AE5B6" stop-opacity="0.5"/>
<stop offset="1" stop-color="#4AE5B6" stop-opacity="0"/>
</radialGradient>
<linearGradient id="paint1_linear_415_552" x1="84.3486" y1="-0.0184737" x2="84.3486" y2="72.9585" gradientUnits="userSpaceOnUse">
<stop stop-color="#1D1F24"/>
<stop offset="1" stop-color="#323840"/>
</linearGradient>
<linearGradient id="paint2_linear_415_552" x1="84.2431" y1="73.1372" x2="84.2431" y2="283.469" gradientUnits="userSpaceOnUse">
<stop stop-color="#31373F"/>
<stop offset="1" stop-color="#323840"/>
</linearGradient>
<linearGradient id="paint3_linear_415_552" x1="9.45018" y1="93.5798" x2="161.661" y2="93.5798" gradientUnits="userSpaceOnUse">
<stop stop-color="#1F2226"/>
<stop offset="0.49" stop-color="#0F1013"/>
<stop offset="1" stop-color="#1F2226"/>
</linearGradient>
<linearGradient id="paint4_linear_415_552" x1="9.45018" y1="125.991" x2="161.661" y2="125.991" gradientUnits="userSpaceOnUse">
<stop stop-color="#1F2226"/>
<stop offset="0.49" stop-color="#0F1013"/>
<stop offset="1" stop-color="#1F2226"/>
</linearGradient>
<linearGradient id="paint5_linear_415_552" x1="9.45018" y1="158.404" x2="161.661" y2="158.404" gradientUnits="userSpaceOnUse">
<stop stop-color="#1F2226"/>
<stop offset="0.49" stop-color="#0F1013"/>
<stop offset="1" stop-color="#1F2226"/>
</linearGradient>
<linearGradient id="paint6_linear_415_552" x1="9.45018" y1="190.818" x2="161.661" y2="190.818" gradientUnits="userSpaceOnUse">
<stop stop-color="#1F2226"/>
<stop offset="0.49" stop-color="#0F1013"/>
<stop offset="1" stop-color="#1F2226"/>
</linearGradient>
<linearGradient id="paint7_linear_415_552" x1="8.40331" y1="223.229" x2="160.614" y2="223.229" gradientUnits="userSpaceOnUse">
<stop stop-color="#1F2226"/>
<stop offset="0.49" stop-color="#0F1013"/>
<stop offset="1" stop-color="#1F2226"/>
</linearGradient>
</defs>
</svg>
