<svg width="776" height="930" viewBox="0 0 776 930" fill="none" xmlns="http://www.w3.org/2000/svg">
<path d="M0 620.909V620.9C5.09106e-06 517.615 1.01817e-05 414.329 0.176534 310.54C1.22204 309.039 2.03165 307.983 2.96895 307.055C15.9504 294.211 29.0049 281.439 41.9335 268.542C78.7782 231.786 115.575 194.981 152.38 158.186C153.115 157.452 153.76 156.628 154.511 155.68C151.633 158.541 151.41 158.747 154.707 155.433C154.752 155.375 154.798 155.317 154.845 155.259C184.217 125.692 279.104 30.8895 234.915 75.0965C185.649 124.409 161.87 148.231 154.707 155.433C154.641 155.516 154.575 155.598 154.511 155.68C173.623 136.675 309.818 0.54541 309.818 0.54541C309.818 0.54541 309.815 135.439 309.822 202.548C309.826 238.525 310.649 273.817 310.545 310C259.6 360.978 207.972 412.432 157.16 463.219C156.417 463.961 155.886 464.916 155.118 465.96C154.669 466.513 154.382 466.9 154.044 467.238C103.34 517.942 52.6317 568.644 1.91545 619.337C1.33404 619.918 0.640958 620.387 0 620.909Z" fill="#F5F5F6"/>
<path d="M729.487 202.618C729.249 202.772 729.012 202.927 728.477 203.373C717.221 214.709 706.262 225.754 695.303 236.799C695.066 236.953 694.829 237.108 694.295 237.553C686.918 245.011 679.84 252.178 672.762 259.345C672.523 259.5 672.285 259.655 671.749 260.101C664.952 266.888 658.465 273.396 651.949 279.874C641.663 290.099 631.358 300.304 620.815 310.5C619.732 311.141 618.818 311.723 618.069 312.47C567.888 362.584 517.718 412.709 467.57 462.857C466.669 463.758 466.057 464.95 465.1 466.113C414.194 516.91 371.637 559.454 312.806 618.296C311.994 619.109 310.546 620.182 310.546 620.182L310.524 619.734C310.524 619.734 310.455 413.241 310.546 310C361.268 259.156 411.988 208.663 462.609 158.03C463.61 157.028 464.427 155.843 465.439 154.518C505.238 114.837 544.936 75.3886 584.615 35.9212C595.615 24.9798 606.568 13.9906 617.505 2.9864C618.144 2.34301 618.449 1.36676 618.909 0.54541C619.919 0.545401 620.929 0.545401 622.058 0.762908C622.812 1.70426 623.409 2.46646 624.089 3.14643C658.292 37.3666 692.502 71.5804 726.718 105.788C727.306 106.376 727.984 106.875 728.699 107.62C729.017 107.978 729.256 108.134 729.582 108.509C744.206 123.271 758.736 137.821 773.304 152.332C774.033 153.059 775.094 153.452 776 154C776 154.776 776 155.552 775.783 156.432C773.475 158.537 771.34 160.493 769.3 162.543C756.018 175.89 742.756 189.257 729.487 202.618Z" fill="#169DAD"/>
<path d="M465.329 154.743C464.426 155.843 463.61 157.028 462.608 158.03C411.987 208.663 310.545 310 310.545 310C310.545 310 309.826 238.525 309.822 202.548C309.815 135.439 309.818 0.54541 309.818 0.54541C359.716 50.4567 413.545 103.194 463.454 153.093C464.042 153.681 464.703 154.195 465.329 154.743Z" fill="#E7E7E8"/>
<path d="M310.515 620.067C310.515 620.067 310.833 620.164 311.099 620.411C354.946 664.228 398.525 707.8 442.115 751.361C443.03 752.275 444.069 753.064 445.051 753.912C445.214 754.132 445.376 754.353 445.751 754.91C450.992 760.135 456.022 765.023 461.051 769.912C461.169 770.122 461.235 770.403 461.412 770.532C466.861 774.491 466.856 775.296 460.948 780.085C411.508 829.396 359.584 880.905 310.546 930C310.546 930 310.495 925.266 310.497 923.41C310.553 871.08 310.536 818.749 310.543 766.419C310.55 717.722 310.57 669.026 310.562 620.265C310.541 620.2 310.515 620.067 310.515 620.067Z" fill="#E7E7E8"/>
<path d="M154.724 155.484C153.945 156.387 153.221 157.345 152.38 158.186C115.575 194.981 78.7781 231.786 41.9333 268.542C29.0048 281.439 15.9503 294.211 2.96882 307.055C2.03152 307.983 1.22191 309.039 0.176406 310.2C-0.00012314 258.955 -0.000123151 207.545 0.340718 155.796C52.029 155.465 103.376 155.475 154.724 155.484Z" fill="#21A6B9"/>
<path d="M465.309 466.006C466.056 464.95 466.669 463.758 467.57 462.857C517.717 412.709 567.888 362.584 618.069 312.47C618.818 311.723 619.732 311.141 620.824 310.826C621.091 372.695 621.102 434.219 621.114 495.743C621.106 535.992 621.108 576.241 621.051 616.49C621.049 617.921 620.458 619.352 619.817 620.586C578.997 579.897 538.504 539.404 497.999 498.921C497.17 498.092 496.211 497.393 495.313 496.634C495.15 496.413 494.987 496.193 494.613 495.635C484.704 485.534 475.006 475.77 465.309 466.006Z" fill="#E7E7E8"/>
<path d="M310.545 310V620.182C310.545 620.182 205.893 516.571 155.412 465.997C155.886 464.916 156.417 463.961 157.16 463.219C207.972 412.432 310.545 310 310.545 310Z" fill="#20A6B9"/>
<path d="M310.545 620.182C310.545 620.182 310.55 717.722 310.543 766.419C310.536 818.749 310.545 930 310.545 930C310.545 930 281.772 902.223 267.912 888.654C267.51 888.411 267.349 888.193 266.983 887.638C243.245 863.773 219.717 840.243 196.175 816.726C195.347 815.899 194.387 815.204 193.488 814.447C193.328 814.229 193.168 814.011 192.801 813.456C185.936 806.466 179.303 799.785 172.61 793.165C167.488 788.099 162.29 783.109 157.125 778.085C156.393 776.995 155.661 775.905 154.936 774.546C155.925 773.432 156.966 772.645 157.881 771.731C208.262 721.38 310.545 620.182 310.545 620.182Z" fill="#F3F3F4"/>
</svg>
